<svg width="240.134888" height="91.905701" viewBox="0 0 240.135 91.9057" fill="none" xmlns="http://www.w3.org/2000/svg" xmlns:xlink="http://www.w3.org/1999/xlink">
	<desc>
			Created with Pixso.
	</desc>
	<defs/>
	<path d="M69.0433 23.007C68.8766 22.7154 69.6683 21.6945 71.4183 19.9445C73.1891 18.1737 74.0745 16.8716 74.0745 16.0383C74.0745 15.4341 73.9704 15.0695 73.762 14.9445C73.5537 14.7987 72.9599 14.7258 71.9808 14.7258C70.5641 14.7258 68.5849 15.1424 66.0433 15.9758C63.9391 16.6424 60.4808 18.132 55.6683 20.4445C50.8558 22.757 46.7412 24.9029 43.3245 26.882C39.4704 29.1112 34.5433 32.2987 28.5433 36.4445C22.5433 40.5904 18.8349 43.3716 17.4183 44.7883C16.8974 45.3091 15.8558 47.5279 14.2933 51.4445C13.8766 52.507 13.5849 53.2362 13.4183 53.632C13.2516 54.0279 13.0641 54.5799 12.8558 55.2883C12.6474 55.9758 12.512 56.4133 12.4495 56.6008C12.4079 56.7674 12.4079 57.0904 12.4495 57.5695C12.4912 58.0279 12.5433 58.3091 12.6058 58.4133C12.6891 58.5174 12.887 58.7779 13.1995 59.1945C13.512 59.6112 13.7724 59.9133 13.9808 60.1008C14.1891 60.2674 14.5745 60.6112 15.137 61.132C18.6162 64.3404 22.8349 66.1216 27.7933 66.4758C32.7724 66.8299 38.762 65.7883 45.762 63.3508C48.9495 62.2258 51.0224 61.5799 51.9808 61.4133C52.5849 61.2883 52.9495 61.2779 53.0745 61.382C53.2204 61.4654 53.2516 61.7466 53.1683 62.2258C53.1058 62.6633 52.8245 63.0591 52.3245 63.4133C51.8454 63.7466 50.9183 64.1841 49.5433 64.7258C41.7099 67.8299 34.6579 69.2153 28.387 68.882C22.137 68.5278 17.0537 66.4654 13.137 62.6945L10.6995 60.382L9.41827 63.6008C6.56411 70.6841 4.54327 76.6216 3.35577 81.4133C2.16827 86.2049 2.08494 88.7987 3.10577 89.1945C3.31411 89.257 3.49119 89.4029 3.63702 89.632C3.78286 89.8612 3.85577 90.1008 3.85577 90.3508C3.85577 90.7674 3.61619 91.0487 3.13702 91.1945C2.67869 91.3612 2.16827 91.3612 1.60577 91.1945C1.06411 91.0487 0.689107 90.7674 0.480774 90.3508C0.0641072 89.5591 -0.0817261 88.1945 0.0432739 86.257C0.168274 84.3195 0.543274 82.1841 1.16827 79.8508C1.77244 77.5591 2.79327 74.3612 4.23077 70.257C5.68911 66.132 6.87661 63.0383 7.79327 60.9758C8.45994 59.3299 8.78286 57.5174 8.76202 55.5383C8.69952 53.8091 8.94952 52.2674 9.51202 50.9133C10.0954 49.5591 11.1579 47.9445 12.6995 46.0695C13.262 45.382 13.887 44.4237 14.5745 43.1945C15.262 41.9654 15.8349 40.7466 16.2933 39.5383C17.3349 36.8924 19.3037 31.2466 22.1995 22.6008C25.1162 13.9549 26.9912 8.1841 27.8245 5.28827C28.512 2.91327 29.0641 1.38202 29.4808 0.694519C29.8974 0.00701904 30.3766 -0.170067 30.9183 0.163269C31.4391 0.496605 31.3454 1.94452 30.637 4.50702C29.9495 7.04868 27.9599 13.2466 24.6683 23.1008C23.1058 27.7674 21.7933 31.7466 20.7308 35.0383C19.6683 38.3091 19.1579 39.9445 19.1995 39.9445C19.2829 39.9445 20.5016 39.0799 22.8558 37.3508C29.9183 32.1633 37.6058 27.2674 45.9183 22.6633C54.2308 18.0383 60.9599 14.9237 66.1058 13.3195C68.0433 12.7154 69.7933 12.3924 71.3558 12.3508C72.9183 12.2883 74.1266 12.4862 74.9808 12.9445C75.8558 13.4029 76.4391 14.0279 76.7308 14.8195C77.0224 15.6112 76.8974 16.5904 76.3558 17.757C75.8141 18.9029 74.887 20.1216 73.5745 21.4133C72.5954 22.3716 71.6787 23.007 70.8245 23.3195C69.9704 23.6112 69.3766 23.507 69.0433 23.007ZM71.0095 56.3195C71.2179 56.8404 71.0199 57.3924 70.4158 57.9758C69.8324 58.5591 68.197 59.7987 65.5095 61.6945C62.4679 63.8612 60.1449 65.2362 58.5408 65.8195C56.9366 66.4028 55.447 66.4133 54.072 65.8508C52.822 65.3508 52.1658 64.1633 52.1033 62.2883C52.0408 60.3924 52.5824 58.2362 53.7283 55.8195C54.4574 54.2779 55.1866 53.0383 55.9158 52.1008C56.6658 51.1424 57.5512 50.4966 58.572 50.1633C59.6345 49.8299 60.4887 50.0174 61.1345 50.7258C61.8012 51.4133 62.0408 52.2258 61.8533 53.1633C61.6658 54.1633 60.9679 55.3195 59.7595 56.632C58.5512 57.9237 57.5095 58.5695 56.6345 58.5695C55.947 58.5695 55.4991 58.6841 55.2908 58.9133C55.0824 59.1216 54.8741 59.7362 54.6658 60.757C54.4783 61.7362 54.5929 62.5383 55.0095 63.1633C55.3429 63.5799 55.6449 63.8091 55.9158 63.8508C56.1866 63.8716 56.7595 63.757 57.6345 63.507C58.822 63.1737 61.1241 61.7674 64.5408 59.2883C65.8533 58.3299 66.8845 57.6008 67.6345 57.1008C68.3845 56.5799 69.0095 56.2154 69.5095 56.007C70.0095 55.7779 70.3533 55.7049 70.5408 55.7883C70.7283 55.8508 70.8845 56.0279 71.0095 56.3195ZM57.6033 53.9758C56.8533 55.0591 56.6241 55.6737 56.9158 55.8195C57.1241 55.882 57.4887 55.6737 58.0095 55.1945C58.8012 54.4445 59.197 53.8508 59.197 53.4133C59.197 52.8508 59.0095 52.6633 58.6345 52.8508C58.322 52.9966 57.9783 53.3716 57.6033 53.9758ZM87.2883 52.9133C88.2466 52.5591 88.9549 52.4966 89.4133 52.7258C89.8924 52.9341 89.9966 53.3716 89.7258 54.0383C89.4341 54.8091 88.4237 55.3508 86.6945 55.6633C84.9862 55.9758 83.8299 55.8299 83.2258 55.2258C82.9549 54.9549 82.7466 54.8508 82.6008 54.9133C82.2674 55.0383 81.3404 56.0695 79.8195 58.007C79.4237 58.5279 78.6216 59.5695 77.4133 61.132C75.6424 63.4862 74.3924 65.0174 73.6633 65.7258C72.9549 66.4133 72.2779 66.7883 71.632 66.8508C71.0279 66.9133 70.6008 66.882 70.3508 66.757C70.1008 66.6112 69.8924 66.3195 69.7258 65.882C69.2466 64.4445 69.4341 61.6633 70.2883 57.5383C70.8716 54.5591 71.5799 53.0383 72.4133 52.9758C72.6216 52.9758 72.8195 53.0695 73.007 53.257C73.2154 53.4862 73.2883 53.9341 73.2258 54.6008C73.1841 55.2466 73.0174 56.3508 72.7258 57.9133C72.5799 58.6424 72.4549 59.257 72.3508 59.757C72.2674 60.257 72.1945 60.7362 72.132 61.1945C72.0695 61.632 72.0279 61.9862 72.007 62.257C71.9862 62.507 71.9966 62.7258 72.0383 62.9133C72.0799 63.0799 72.132 63.1737 72.1945 63.1945C72.2779 63.2154 72.4029 63.1841 72.5695 63.1008C72.7362 62.9966 72.9133 62.8508 73.1008 62.6633C73.2883 62.4549 73.5279 62.1737 73.8195 61.8195C74.132 61.4445 74.4445 61.0591 74.757 60.6633C75.0904 60.2466 75.4862 59.7258 75.9445 59.1008C76.9654 57.7258 78.9341 55.0904 81.8508 51.1945L84.757 47.3195C85.0904 46.882 85.3195 46.6529 85.4445 46.632C85.5904 46.5904 85.8404 46.7362 86.1945 47.0695C86.5487 47.4237 86.7049 47.7674 86.6633 48.1008C86.6424 48.4341 86.3924 49.1841 85.9133 50.3508C85.2258 52.0174 84.9862 52.9654 85.1945 53.1945C85.4445 53.4445 86.1424 53.3508 87.2883 52.9133ZM114.442 55.7883C115.005 55.7258 115.4 55.9341 115.63 56.4133C115.859 56.8924 115.713 57.4445 115.192 58.0695C114.775 58.5279 114.317 59.0174 113.817 59.5383C113.317 60.0383 112.473 60.8091 111.286 61.8508C110.098 62.8924 108.911 63.8299 107.723 64.6633C106.536 65.4758 105.13 66.2674 103.505 67.0383C101.88 67.8091 100.307 68.3403 98.7858 68.632C96.5774 69.0487 94.6191 68.7153 92.9108 67.632C91.2024 66.5278 90.2441 64.9862 90.0358 63.007C89.8274 60.9237 89.9524 58.7466 90.4108 56.4758C90.8066 54.5591 91.2962 53.1737 91.8795 52.3195C92.4629 51.4654 93.0774 51.2466 93.7233 51.6633C94.0149 51.8299 94.1608 52.2258 94.1608 52.8508C94.1608 53.4549 94.0254 53.8404 93.7545 54.007C93.4629 54.1945 93.1295 55.5487 92.7545 58.0695C92.5045 59.6737 92.3795 60.8091 92.3795 61.4758C92.4004 62.1216 92.567 62.8195 92.8795 63.5695C93.4629 64.9862 94.5983 65.7778 96.2858 65.9445C97.9941 66.0903 99.7754 65.7883 101.63 65.0383C103.505 64.2883 105.223 63.3091 106.786 62.1008C107.765 61.3299 108.859 60.4029 110.067 59.3195C111.296 58.2154 112.255 57.3612 112.942 56.757C113.65 56.1529 114.15 55.8299 114.442 55.7883ZM95.4108 47.8508C95.1816 48.0799 94.8899 48.1945 94.5358 48.1945C94.1816 48.1945 93.8795 48.0799 93.6295 47.8508C93.4004 47.6008 93.2858 47.2987 93.2858 46.9445C93.2858 46.5904 93.4004 46.2987 93.6295 46.0695C93.8795 45.8195 94.1816 45.6945 94.5358 45.6945C94.8899 45.6945 95.1816 45.8195 95.4108 46.0695C95.6608 46.2987 95.7858 46.5904 95.7858 46.9445C95.7858 47.2987 95.6608 47.6008 95.4108 47.8508ZM140.002 56.4133C140.294 56.2883 140.575 56.3299 140.846 56.5383C141.137 56.7466 141.294 57.0591 141.315 57.4758C141.356 57.8716 141.19 58.3404 140.815 58.882C140.252 59.632 139.169 60.6633 137.565 61.9758C135.981 63.2883 134.908 64.0695 134.346 64.3195C132.137 65.2362 130.19 65.2778 128.502 64.4445C127.731 64.0695 127.065 63.3612 126.502 62.3195C125.96 61.2779 125.575 60.3404 125.346 59.507C125.117 58.6529 124.981 58.2258 124.94 58.2258C124.585 58.2258 123.971 58.6841 123.096 59.6008C122.221 60.5174 121.429 61.5279 120.721 62.632C118.825 65.632 117.304 67.2362 116.158 67.4445C115.596 67.5487 115.2 67.2778 114.971 66.632C114.825 66.2778 115.023 64.3508 115.565 60.8508C116.106 57.3508 116.648 54.4862 117.19 52.257C117.44 51.3195 117.794 50.6633 118.252 50.2883C118.71 49.9133 119.148 49.9237 119.565 50.3195C119.856 50.6112 119.69 52.507 119.065 56.007C118.419 59.5487 118.096 61.3924 118.096 61.5383C118.096 61.6216 118.283 61.4341 118.658 60.9758C118.908 60.6841 119.2 60.3091 119.533 59.8508C120.45 58.6008 121.554 57.5279 122.846 56.632C124.158 55.7154 125.179 55.3091 125.908 55.4133C126.367 55.4758 126.71 55.6841 126.94 56.0383C127.169 56.3924 127.419 57.1216 127.69 58.2258C128.398 61.0591 129.7 62.4758 131.596 62.4758C132.346 62.4758 133.2 62.1737 134.158 61.5695C135.117 60.9654 135.96 60.3091 136.69 59.6008C137.419 58.8716 138.106 58.1737 138.752 57.507C139.419 56.8404 139.835 56.4758 140.002 56.4133ZM207.653 70.7883C207.403 70.8924 206.31 71.0383 204.372 71.2258C202.455 71.3924 199.716 71.8091 196.153 72.4758C192.591 73.1216 188.882 74.0487 185.028 75.257C180.382 76.7154 176.132 78.6112 172.278 80.9445C168.445 83.2987 165.164 85.9549 162.435 88.9133C161.039 90.4549 160.122 91.3716 159.685 91.6633C159.268 91.9758 158.841 91.9862 158.403 91.6945C158.112 91.507 157.955 91.2987 157.935 91.0695C157.935 90.8404 158.039 90.4549 158.247 89.9133C159.06 87.8924 160.799 83.8091 163.466 77.6633C169.299 63.9966 173.216 54.5591 175.216 49.3508C177.237 44.1424 179.237 38.2258 181.216 31.6008C182.841 26.1424 183.601 23.3091 183.497 23.1008C183.455 22.9966 183.268 23.1945 182.935 23.6945C182.914 23.7154 182.893 23.7362 182.872 23.757C182.435 24.382 181.955 24.6424 181.435 24.5383C180.935 24.4341 180.685 24.0174 180.685 23.2883C180.685 23.0174 180.893 22.4549 181.31 21.6008C181.747 20.7258 182.268 19.8195 182.872 18.882C184.351 16.4237 185.414 14.3299 186.06 12.6008C186.789 10.7466 187.435 9.81952 187.997 9.81952C188.56 9.81952 188.945 9.98618 189.153 10.3195C189.445 10.7779 188.424 15.1841 186.091 23.5383C183.778 31.8716 181.58 39.0279 179.497 45.007C177.851 49.7154 175.726 55.1216 173.122 61.2258C166.851 76.1216 163.716 83.6424 163.716 83.7883C163.716 83.8299 163.872 83.7466 164.185 83.5383C164.497 83.3299 164.935 83.0174 165.497 82.6008C166.08 82.2049 166.674 81.7674 167.278 81.2883C170.174 79.1216 174.393 76.9445 179.935 74.757C185.497 72.5695 190.028 71.1424 193.528 70.4758C195.362 70.1216 197.33 69.8091 199.435 69.5383C201.539 69.2466 203.351 69.0174 204.872 68.8508C206.414 68.6841 207.226 68.5903 207.31 68.5695C207.83 68.4653 208.205 68.5695 208.435 68.882C208.664 69.1737 208.695 69.5174 208.528 69.9133C208.382 70.3091 208.091 70.6008 207.653 70.7883ZM217.651 59.1008C219.692 56.8924 220.911 56.1008 221.307 56.7258C221.432 56.9341 221.495 57.2779 221.495 57.757C221.495 58.2362 220.984 59.0695 219.963 60.257C218.963 61.4445 217.859 62.5383 216.651 63.5383C215.463 64.5174 214.63 65.007 214.151 65.007C212.838 65.007 211.984 64.4445 211.588 63.3195C211.192 62.1945 211.276 60.6008 211.838 58.5383C212.505 56.2049 212.265 55.9237 211.12 57.6945C210.849 58.1112 210.536 58.632 210.182 59.257C207.953 63.257 206.192 65.6008 204.901 66.2883C204.276 66.6424 203.849 66.8299 203.62 66.8508C203.411 66.8508 202.963 66.7153 202.276 66.4445C201.547 66.1528 201.078 65.5278 200.87 64.5695C200.661 63.5904 200.661 61.9862 200.87 59.757C201.349 54.2987 202.12 50.7883 203.182 49.2258C203.661 48.5174 204.14 48.4029 204.62 48.882C205.015 49.2779 204.953 50.7362 204.432 53.257C204.057 54.9862 203.755 56.7049 203.526 58.4133C203.297 60.1216 203.182 61.4654 203.182 62.4445C203.182 63.4029 203.286 63.9341 203.495 64.0383C204.307 64.0383 206.234 61.3299 209.276 55.9133C210.651 53.4966 211.797 51.7466 212.713 50.6633C213.63 49.5591 214.442 49.007 215.151 49.007C215.942 49.007 216.37 49.4862 216.432 50.4445C216.495 51.4029 216.192 52.9445 215.526 55.0695C214.255 59.2362 213.765 61.5383 214.057 61.9758C214.328 62.3716 215.297 61.6633 216.963 59.8508C217.172 59.6216 217.401 59.3716 217.651 59.1008ZM239.148 54.9445C239.565 54.8404 239.846 54.9445 239.992 55.257C240.159 55.5695 240.18 55.9341 240.055 56.3508C239.95 56.7674 239.763 57.0591 239.492 57.2258C239.284 57.3508 238.961 57.4654 238.523 57.5695C238.086 57.6737 237.315 57.9133 236.211 58.2883C235.127 58.6633 233.815 59.1841 232.273 59.8508C230.002 60.8299 228.471 61.5695 227.68 62.0695C226.909 62.5487 226.221 63.2154 225.617 64.0695C224.638 65.4445 223.638 66.3508 222.617 66.7883C221.617 67.2049 220.659 67.132 219.742 66.5695C219.159 66.1945 218.742 65.7362 218.492 65.1945C218.242 64.6528 218.159 64.1216 218.242 63.6008C218.325 63.0591 218.409 62.6424 218.492 62.3508C218.596 62.0591 218.7 61.8195 218.805 61.632C219.013 61.2779 219.294 60.9341 219.648 60.6008C220.002 60.2466 220.325 60.007 220.617 59.882C221.346 59.5904 221.711 59.0799 221.711 58.3508C221.732 57.5591 222.242 56.3299 223.242 54.6633C224.263 52.9966 225.18 51.8716 225.992 51.2883C227.117 50.4758 228.034 50.0383 228.742 49.9758C229.471 49.9133 230.096 50.1841 230.617 50.7883C230.93 51.1424 231.138 51.4237 231.242 51.632C231.367 51.8195 231.461 52.1841 231.523 52.7258C231.586 53.2674 231.502 53.9133 231.273 54.6633C231.169 55.1424 231.013 55.6424 230.805 56.1633C230.617 56.6841 230.461 57.0904 230.336 57.382C230.211 57.6737 230.148 57.8299 230.148 57.8508C230.169 57.8716 230.836 57.6633 232.148 57.2258C233.461 56.7883 234.867 56.3195 236.367 55.8195C237.888 55.3195 238.815 55.0279 239.148 54.9445ZM222.648 63.6008C223.065 63.1633 223.315 62.8716 223.398 62.7258C223.482 62.5799 223.492 62.4549 223.43 62.3508C223.367 62.2466 223.148 62.1008 222.773 61.9133C222.377 61.6841 222.075 61.6008 221.867 61.6633C221.68 61.7049 221.482 61.9237 221.273 62.3195C221.086 62.6945 220.94 63.0695 220.836 63.4445C220.752 63.8195 220.732 64.132 220.773 64.382C220.836 64.632 220.961 64.757 221.148 64.757C221.461 64.757 221.961 64.3716 222.648 63.6008ZM227.023 57.382C228.002 55.6945 228.492 54.4862 228.492 53.757C228.492 53.2779 228.44 53.007 228.336 52.9445C228.232 52.882 227.971 52.9758 227.555 53.2258C227.013 53.5799 226.305 54.507 225.43 56.007C224.555 57.507 224.117 58.5591 224.117 59.1633C224.117 59.8924 224.388 60.1216 224.93 59.8508C225.575 59.5383 226.273 58.7154 227.023 57.382Z" fill="#AAAAAA" fill-opacity="1.000000" fill-rule="evenodd"/>
</svg>
