<svg width="79" height="80" viewBox="0 0 79 80" fill="none" xmlns="http://www.w3.org/2000/svg">
<path d="M12.1933 58.8299C12.0216 58.6547 12.1933 58.8299 12.1933 58.8299C12.0216 58.6547 11.8499 58.4796 11.8499 58.3044C11.6781 57.9541 11.5064 57.7789 11.5064 57.7789C11.5064 57.2534 11.6781 56.7279 11.6781 56.2024C12.1933 56.2024 13.052 56.0273 13.3955 54.9763C13.5672 54.4508 13.5673 53.7501 13.5673 53.0494C13.5673 52.6991 13.5672 52.3488 13.3955 52.1736C13.3955 51.8233 13.3955 51.6481 13.3955 51.473C12.8803 51.8233 10.9912 53.2246 10.6477 54.1004C10.4759 54.6259 10.4759 54.9763 10.6477 55.3266C10.8194 55.6769 11.1629 55.8521 11.3346 56.0273C11.1629 56.2024 11.1629 56.5528 10.9912 56.9031C10.9912 56.9031 10.8194 56.7279 10.6477 56.3776C10.4759 56.0273 10.3042 55.6769 10.1325 55.3266C9.96074 54.9763 9.789 54.6259 9.61726 54.2756C9.61726 54.1004 9.44551 53.9253 9.44551 53.9253V53.7501L8.93029 52.524C8.93029 52.1736 9.27377 51.473 9.44551 50.9475C9.96072 50.9475 10.8194 50.9475 11.3346 50.0716C11.5064 49.7213 11.6781 49.0207 11.6781 48.32C11.6781 47.9697 11.6781 47.6193 11.6781 47.269C11.6781 46.9187 11.6781 46.7435 11.6781 46.5683C11.1629 46.7435 9.10203 47.7945 8.58681 48.6703C8.41508 48.8455 8.41509 49.0207 8.41509 49.1958C8.24335 49.8965 8.75855 50.422 8.93029 50.5971C8.75855 50.7723 8.58683 51.1226 8.41509 51.2978C8.41509 51.2978 8.41508 51.1226 8.24334 50.9475C8.24334 50.7723 8.07159 50.5971 8.07159 50.2468C7.89985 49.7213 7.72812 49.1958 7.72812 49.1958C7.72812 49.1958 7.72814 49.0206 7.5564 48.8455C7.5564 48.6703 7.38465 48.4952 7.38465 48.4952L7.04118 47.269C7.21291 46.9187 7.55638 46.218 7.72812 45.8677C8.0716 46.0428 9.10203 46.0428 9.78898 45.167C10.1325 44.8167 10.3042 44.116 10.476 43.4154C10.6477 42.7147 10.8194 42.1892 10.8194 41.8389C10.3042 42.014 8.0716 42.7147 7.38465 43.4154C6.69769 44.2912 7.21291 45.167 7.38465 45.5173C7.21291 45.6925 7.04117 45.8677 6.86943 46.218C6.86943 46.218 6.86944 46.0428 6.6977 45.6925C6.6977 45.3422 6.52595 44.9918 6.52595 44.4663C6.52595 44.116 6.35421 43.5905 6.35421 43.2402C6.35421 42.8899 6.35421 42.7147 6.35421 42.7147C6.35421 42.7147 6.35421 42.3644 6.35421 42.014C6.35421 41.8389 6.35421 41.6637 6.35421 41.6637C6.35421 41.4885 6.35421 41.4885 6.35421 41.4885C6.52594 41.1382 7.04116 40.6127 7.2129 40.2624C7.55638 40.4376 8.58683 40.6127 9.27378 39.912C9.61726 39.5617 9.96074 39.0362 10.1325 38.3356C10.476 37.6349 10.6477 37.1094 10.6477 36.7591C9.96072 36.7591 7.72813 37.1094 7.04118 37.8101C6.86944 37.9852 6.6977 38.1604 6.6977 38.3356C6.35423 39.0362 6.69769 39.5617 6.86943 39.912C6.69769 40.0872 6.52596 40.2624 6.18248 40.4375C6.18248 40.4375 6.18248 40.2624 6.18248 40.0872C6.18248 39.912 6.18248 39.5617 6.18248 39.3866C6.18248 38.8611 6.18248 38.3356 6.18248 38.3356V37.4597C6.18248 37.4597 6.18248 37.1094 6.18248 36.7591C6.18248 36.4088 6.18248 36.0584 6.18248 36.0584C6.35422 35.7081 6.86942 35.1826 7.2129 35.0074C7.55638 35.1826 8.41509 35.7081 9.27378 35.0074C9.61726 34.6571 10.1325 34.1316 10.476 33.6061C10.8194 33.0806 11.1629 32.5551 11.1629 32.2048C10.4759 32.2048 8.24334 32.2048 7.38465 32.7303C6.86943 33.0806 6.6977 33.4309 6.6977 33.7813C6.6977 34.1316 6.69769 34.4819 6.86943 34.6571C6.69769 34.8323 6.35422 35.0074 6.18248 35.1826C6.18248 35.1826 6.18248 35.0074 6.18248 34.6571C6.18248 34.3068 6.35421 33.9564 6.35421 33.4309C6.35421 32.9054 6.52595 32.5551 6.52595 32.2048C6.52595 31.8544 6.6977 31.6793 6.6977 31.6793C6.6977 31.6793 6.6977 31.6793 6.6977 31.5041C6.6977 31.329 6.6977 31.1538 6.6977 31.1538C6.6977 30.8035 6.86943 30.4531 6.86943 30.4531C7.2129 30.1028 7.72812 29.7525 8.07159 29.5773C8.41507 29.9276 9.10205 30.4531 10.1325 29.9276C10.3042 29.7525 10.6477 29.5773 10.8194 29.4021C10.9912 29.227 11.3346 28.8766 11.5064 28.7015C12.0216 28.176 12.3651 27.6505 12.5368 27.4753C12.1933 27.4753 11.5064 27.3002 10.8194 27.125C10.1325 27.125 9.27378 27.125 8.75856 27.3001C8.58682 27.4753 8.41508 27.4753 8.24334 27.6505C8.0716 27.8256 7.89987 28.176 7.89987 28.5263C7.89987 28.8766 7.89987 29.0518 7.89987 29.227C7.72813 29.4021 7.38465 29.4021 7.04118 29.5773C7.04118 29.5773 7.21291 29.0518 7.38465 28.5263C7.38465 28.3511 7.5564 28.0008 7.5564 27.8256C7.5564 27.6505 7.72812 27.4753 7.72812 27.4753L8.07159 26.5995C8.07159 26.5995 8.07159 26.5995 8.07159 26.4243C8.07159 26.4243 8.07159 26.4243 8.07159 26.2492C8.07159 26.2492 8.0716 26.074 8.24334 25.8988C8.41508 25.5485 8.41509 25.3733 8.41509 25.3733C8.75857 25.023 9.4455 24.8478 9.78898 24.6727C10.1325 25.023 10.8194 25.7237 11.8499 25.3733C12.7086 25.023 14.0825 23.6217 14.5977 23.2713C14.0825 23.0962 11.8499 22.2203 10.8194 22.5707C10.3042 22.7458 9.96072 23.0962 9.78898 23.4465C9.61724 23.7968 9.61726 24.1472 9.61726 24.3223C9.44552 24.3223 9.10204 24.4975 8.75856 24.4975C8.75856 24.4975 8.93029 24.3223 8.93029 23.972C9.10203 23.6217 9.27377 23.2713 9.44551 22.921C9.61725 22.5707 9.78899 22.2204 9.96073 21.87C10.1325 21.5197 10.1325 21.3445 10.1325 21.3445L10.8194 20.2935C11.1629 20.1184 11.8498 19.9432 12.3651 19.768C12.5368 20.1184 13.2238 20.819 14.2542 20.819C14.7694 20.819 15.2846 20.4687 15.7998 20.1184C16.1433 19.9432 16.3151 19.768 16.6585 19.5929C16.8303 19.4177 17.1737 19.2425 17.1737 19.2425C16.6585 18.8922 14.5977 17.8412 13.5673 17.8412C13.3955 17.8412 13.2238 17.8412 13.052 18.0164C12.3651 18.3667 12.1933 19.0674 12.1933 19.2425C12.0216 19.2425 11.6781 19.2425 11.3346 19.2425C11.3346 19.2425 11.3346 19.0674 11.5064 18.8922C11.6781 18.717 11.6781 18.5419 11.8499 18.3667C12.1933 18.0164 12.3651 17.4909 12.3651 17.4909C12.3651 17.4909 12.5368 17.3157 12.5368 17.1406C12.7085 16.9654 12.7086 16.7902 12.7086 16.7902L13.052 16.2647L13.5673 15.7392C13.9107 15.5641 14.5977 15.5641 15.1129 15.5641C15.2846 15.9144 15.7998 16.7902 16.8303 16.7902C17.3455 16.7902 18.0324 16.6151 18.5477 16.2647C19.2346 16.0896 19.7498 15.7392 19.9216 15.5641C19.4064 15.2137 17.689 13.8124 16.6585 13.8124C16.1433 13.8124 15.7998 13.9876 15.4564 14.3379C15.2846 14.6882 15.1129 14.8634 15.1129 15.2137C14.9412 15.2137 14.5977 15.2137 14.2542 15.2137C14.2542 15.2137 14.4259 15.0386 14.5977 14.8634C14.7694 14.6882 15.1129 14.3379 15.4564 13.9876C15.6281 13.8124 15.7998 13.6373 15.9716 13.4621C16.1433 13.2869 16.3151 13.1118 16.3151 13.1118C16.4868 12.9366 16.6585 12.7614 16.6585 12.7614C16.6585 12.7614 16.8303 12.5863 17.1737 12.2359C17.3455 12.0608 17.689 11.8856 17.689 11.8856C18.2042 11.8856 18.7194 11.8856 19.2346 11.8856C19.2346 12.4111 19.5781 13.2869 20.6085 13.4621C20.7803 13.4621 21.1237 13.4621 21.4672 13.4621C21.8107 13.4621 22.1542 13.2869 22.3259 13.2869C22.6694 13.2869 23.0129 13.1118 23.3564 13.1118C23.6998 13.1118 23.8716 12.9366 24.0433 12.9366C23.6998 12.4111 21.9824 10.8346 21.1237 10.6594C20.952 10.6594 20.7803 10.6594 20.4368 10.6594C20.2651 10.6594 20.0933 10.6594 19.9216 10.8346C19.7498 10.8346 19.7498 11.0098 19.5781 11.1849C19.4064 11.3601 19.2346 11.5353 19.2346 11.7104C19.0629 11.7104 18.7194 11.5353 18.3759 11.5353C18.3759 11.5353 18.7194 11.1849 19.2346 10.8346C19.5781 10.4843 20.0933 10.1339 20.0933 10.1339L20.7803 9.60845C20.7803 9.60845 20.7803 9.60844 20.952 9.43328C20.952 9.43328 21.1237 9.43328 21.1237 9.25811C21.4672 9.08295 21.639 8.90779 21.639 8.90779C21.9824 8.90779 22.6694 9.08295 23.1846 9.08295C23.1846 9.60845 23.3563 10.4843 24.3868 10.8346C24.902 11.0098 25.589 11.0098 26.2759 11.0098C26.6194 11.0098 26.9629 11.0098 27.1346 10.8346C27.4781 10.8346 27.6498 10.8346 27.8215 10.8346C27.4781 10.3091 26.1042 8.38229 25.2455 8.03196C24.7302 7.8568 24.3868 7.8568 24.0433 8.03196C23.6998 8.20713 23.5281 8.55746 23.3564 8.73263C23.1846 8.55746 22.8411 8.55745 22.4977 8.38229C22.4977 8.38229 22.6694 8.20713 23.0129 8.03196C23.3564 7.8568 23.6998 7.68163 24.0433 7.50646C24.215 7.3313 26.1042 6.45547 27.4781 5.57965C27.8216 5.92998 28.5085 6.45548 29.3672 6.10515C30.2259 5.75482 31.5998 3.82799 31.9433 3.30249C31.4281 3.12732 29.0237 2.777 28.165 3.12733C26.9629 3.65282 27.1346 4.70381 27.1346 5.05414C26.4476 5.40447 25.7607 5.57964 25.4172 5.75481C25.0737 5.92997 23.3564 6.45547 23.3564 6.45547C23.3564 6.10514 23.5281 5.75481 23.5281 5.57965C23.6998 5.57965 24.0433 5.57965 24.3868 5.40448C24.7302 5.22932 25.0737 4.87899 25.2455 4.35349C25.4172 3.828 25.4172 2.95216 25.4172 2.2515C25.4172 1.55084 25.2455 0.675013 25.2455 0.499847C25.0737 0.675013 24.902 0.850183 24.5585 1.02535C24.215 1.20051 24.0433 1.55085 23.6998 1.72601C23.0129 2.25151 22.4977 2.95217 22.3259 3.47767C21.9824 4.52866 22.6694 5.22932 23.0129 5.40448C23.0129 5.57965 22.8411 5.92998 22.6694 6.10515C22.4976 6.45548 22.4977 6.63063 22.3259 6.8058C22.3259 6.8058 22.1542 6.80581 21.9824 6.98097C21.8107 7.15614 21.4672 7.3313 21.2955 7.50646C20.7803 7.85679 20.2651 8.20713 20.2651 8.20713C20.2651 8.20713 20.265 8.20712 20.0933 8.38229C19.9216 8.38229 19.9216 8.55746 19.7498 8.73263C19.4064 8.90779 19.2346 9.08295 19.2346 9.08295L18.8911 9.25811C18.8911 9.08295 18.8911 8.90779 18.8911 8.73263C18.8911 8.55746 18.8911 8.55745 18.8911 8.38229C19.0629 8.38229 19.4064 8.20713 19.7498 8.03196C20.0933 7.8568 20.4368 7.50647 20.4368 6.98097C20.6085 5.92998 19.9216 3.65282 19.7498 3.12733C19.5781 3.30249 19.4063 3.47766 19.2346 3.65283C19.0629 4.00316 18.7194 4.17832 18.3759 4.52866C17.8607 5.22932 17.3455 5.92998 17.3455 6.45547V6.63063C17.3455 7.68163 18.0324 8.03196 18.3759 8.20713C18.2042 8.73262 18.2042 9.43329 18.0324 9.78362C18.0324 9.78362 17.8607 9.95878 17.689 10.1339C17.5172 10.3091 17.1738 10.6594 16.8303 10.8346C16.4868 11.0098 16.3151 11.3601 15.9716 11.5353C15.7998 11.7104 15.6281 11.8856 15.6281 11.8856C15.6281 11.8856 15.2846 12.2359 14.9411 12.4111C14.7694 12.5863 14.5977 12.7614 14.5977 12.7614C14.4259 12.9366 14.4259 12.9366 14.4259 12.9366C14.4259 12.5863 14.2542 12.2359 14.2542 12.0608C14.4259 12.0608 14.7694 11.8856 15.1129 11.5353C15.4564 11.3601 15.6281 10.8346 15.6281 10.3091C15.6281 9.25811 14.5977 7.15613 14.4259 6.63063C14.2542 6.98097 13.739 7.50646 13.3955 8.38229C13.052 9.08295 12.7086 9.95878 12.7086 10.4843C12.7086 11.7104 13.5672 12.0608 14.0824 12.0608C14.0824 12.5863 14.0825 13.2869 13.9107 13.6372C13.9107 13.6372 13.739 13.8124 13.5673 13.9876C13.3955 14.1628 13.2238 14.3379 13.052 14.6882C12.8803 14.8634 12.7085 15.2137 12.5368 15.3889C12.3651 15.5641 12.3651 15.7392 12.3651 15.7392C12.3651 15.7392 12.1933 16.0896 11.8499 16.2647C11.6781 16.4399 11.6781 16.6151 11.5064 16.6151C11.5064 16.7902 11.3346 16.7902 11.3346 16.7902L11.1629 17.1406C11.1629 16.9654 10.9912 16.7902 10.9912 16.6151C10.9912 16.4399 10.9912 16.4399 10.8194 16.2647C10.9912 16.0896 11.3346 15.9144 11.5064 15.7392C11.6781 15.3889 11.8499 15.0386 11.8499 14.5131C11.6781 13.4621 10.476 11.5353 10.1325 11.0098C9.96074 11.3601 9.61726 12.0608 9.27378 12.7614C8.93031 13.6372 8.75855 14.3379 8.93029 15.0386V15.2137C9.10203 16.2647 9.96073 16.4399 10.476 16.4399C10.476 16.9654 10.6477 17.6661 10.6477 18.0164C10.6477 18.0164 10.3042 18.717 9.78898 19.4177C9.4455 20.1184 8.93029 20.819 8.93029 20.819C8.93029 20.819 8.9303 20.9942 8.75856 20.9942C8.75856 21.1694 8.58683 21.3445 8.41509 21.5197C8.24335 21.87 8.07159 22.2204 8.07159 22.2204C7.89985 21.87 7.72812 21.6949 7.72812 21.3445C7.89986 21.1694 8.24335 20.9942 8.41509 20.6439C8.58683 20.2935 8.75855 19.9432 8.58681 19.2425C8.24334 18.1916 6.6977 16.6151 6.18248 16.0896C6.18248 16.2647 6.01075 16.6151 5.83901 16.7902C5.66727 17.1406 5.66725 17.4909 5.49551 18.0164C5.32377 18.8922 5.32377 19.768 5.49551 20.2935C5.83899 21.3445 6.86942 21.5197 7.2129 21.5197C7.38464 22.0452 7.5564 22.7458 7.5564 23.0962C7.5564 23.0962 7.55639 23.2713 7.38465 23.4465C7.21291 23.6217 7.21291 23.972 7.04118 24.3223C6.86944 24.8478 6.52595 25.5485 6.52595 25.5485C6.52595 25.5485 6.52595 25.5485 6.52595 25.7237C6.52595 25.8988 6.35421 26.074 6.35421 26.2492C6.18247 26.5995 6.18248 26.9498 6.18248 26.9498L6.01073 27.3001C5.83899 27.125 5.839 26.9498 5.66726 26.9498C5.66726 26.7746 5.49551 26.7747 5.49551 26.5995C5.66725 26.4243 5.83899 26.2492 6.01073 25.7237C6.18247 25.3733 6.18247 24.8478 6.01073 24.3223C5.49552 23.4465 3.77815 21.87 3.26293 21.5197C3.09119 22.2204 2.74771 24.8478 3.26293 25.7237C3.26293 25.7237 3.26291 25.8988 3.43465 25.8988C3.94987 26.7746 4.80857 26.7747 5.32379 26.5995C5.49553 26.9498 5.83901 27.6505 5.83901 28.176C5.83901 28.176 5.839 28.3511 5.66726 28.7015C5.66726 29.0518 5.49551 29.4021 5.49551 29.7525C5.32377 30.1028 5.32379 30.4531 5.32379 30.8035C5.32379 31.1538 5.15204 31.3289 5.15204 31.3289C5.15204 31.3289 5.15206 31.6793 4.98032 32.2048C4.80858 32.5551 4.80857 33.0806 4.80857 33.0806C4.63683 32.9054 4.29336 32.5551 4.12162 32.3799C4.29336 32.2048 4.4651 31.8545 4.4651 31.5041C4.4651 31.1538 4.4651 30.6283 4.12162 30.1028C3.60641 29.227 1.54554 28.176 1.03032 27.8256C1.03032 28.176 1.03032 29.0518 1.03032 29.9276C1.20206 30.8035 1.37379 31.6793 1.71727 32.0296C2.40422 32.9054 3.26291 32.7303 3.77812 32.5551C4.1216 32.9054 4.46508 33.6061 4.63682 33.9564C4.63682 33.9564 4.63682 34.1316 4.63682 34.3068C4.63682 34.4819 4.63682 34.8323 4.63682 35.1826C4.63682 35.5329 4.63682 35.8833 4.63682 36.0584C4.63682 36.2336 4.63682 36.4087 4.63682 36.4087V37.8101V38.1604C4.46508 37.9852 4.29335 37.9852 4.29335 37.8101C4.12161 37.8101 4.12161 37.6349 3.94987 37.6349C4.12161 37.4597 4.12162 37.1094 4.12162 36.7591C4.12162 36.4088 3.94988 35.8832 3.6064 35.5329C2.91945 34.8323 0.686843 33.9564 0.171627 33.7813C0.171627 34.1316 0.343361 35.0074 0.515099 35.7081C0.686838 36.5839 1.03032 37.2846 1.37379 37.8101C1.37379 37.8101 1.3738 37.8101 1.54554 37.9852C2.40424 38.6859 3.09117 38.3356 3.43465 38.1604C3.77813 38.5107 4.29336 39.0362 4.4651 39.3866C4.4651 39.3866 4.4651 39.5617 4.4651 39.912C4.4651 40.2624 4.4651 40.6127 4.4651 40.963C4.4651 41.3134 4.46508 41.6637 4.63682 42.014C4.63682 42.3644 4.63682 42.5395 4.63682 42.5395C4.63682 42.5395 4.63683 43.065 4.80857 43.4154C4.80857 43.7657 4.98032 44.2912 4.98032 44.2912C4.63684 44.116 4.4651 43.9409 4.12162 43.9409C4.29336 43.5905 4.4651 42.5395 3.6064 41.8389C2.74771 41.1382 0.515094 40.7879 -0.00012207 40.7879C0.171617 41.1382 0.343371 41.8389 0.686849 42.7147C1.03033 43.4154 1.54554 44.2912 1.88901 44.6415C2.74771 45.3422 3.6064 44.8167 3.94987 44.4663C4.29335 44.8167 4.80856 45.167 5.15204 45.5173C5.15204 45.5173 5.32377 46.218 5.49551 46.7435C5.49551 47.0938 5.66726 47.4442 5.66726 47.6193C5.66726 47.7945 5.83901 47.9697 5.83901 47.9697C5.83901 47.9697 6.01073 48.32 6.01073 48.6703C6.01073 48.8455 6.18248 49.0207 6.18248 49.1958C6.18248 49.371 6.18248 49.371 6.18248 49.371L6.35421 49.7213C6.18247 49.7213 6.01075 49.5461 5.83901 49.5461C5.66727 49.5461 5.66725 49.371 5.49551 49.371C5.49551 49.1958 5.49551 48.8455 5.49551 48.4952C5.32377 48.1448 5.15203 47.7945 4.63682 47.4442C3.77812 46.9187 1.37379 46.9187 0.858572 46.9187C1.03031 47.269 1.3738 47.9697 1.88901 48.6703C2.40423 49.371 2.91944 50.0716 3.43465 50.2468H3.6064C4.4651 50.5971 5.15203 50.0716 5.49551 49.7213C5.83899 49.8965 6.52595 50.2468 6.86943 50.5971C6.86943 50.5971 7.21291 51.2978 7.38465 51.9985C7.55639 52.3488 7.72813 52.6991 7.89987 53.0494C8.07161 53.3998 8.07159 53.575 8.07159 53.575C8.07159 53.575 8.0716 53.7501 8.24334 53.7501C8.24334 53.9253 8.41508 54.1004 8.58681 54.2756C8.75855 54.6259 8.93029 55.1514 8.93029 55.1514C8.58681 55.1514 8.24333 54.9763 8.07159 54.9763C8.07159 54.8011 8.07161 54.4508 7.89987 54.1004C7.72813 53.7501 7.38464 53.3998 6.86943 53.2246C6.35421 53.0494 5.49552 53.0494 4.80857 53.0494C4.12161 53.0494 3.26292 53.2246 3.09118 53.2246C3.26292 53.3998 3.26292 53.5749 3.6064 53.9253C3.77814 54.2756 4.12161 54.4508 4.29335 54.8011C4.80856 55.5018 5.49552 56.0273 6.01073 56.2024C7.04117 56.5528 7.72813 55.8521 7.89987 55.5018C8.07161 55.5018 8.41508 55.6769 8.58681 55.8521C8.93029 56.0273 9.10205 56.0273 9.27378 56.2024C9.27378 56.2024 9.27377 56.3776 9.44551 56.5528C9.61725 56.7279 9.78899 57.0783 9.96073 57.2534C10.3042 57.7789 10.6477 58.3044 10.6477 58.3044C10.6477 58.3044 10.6477 58.3044 10.8194 58.4796C10.8194 58.6547 10.9912 58.6547 11.1629 58.8299C11.3346 59.1802 11.5064 59.3554 11.5064 59.3554L12.1933 58.8299Z" fill="#F5EFDB"/>
<path d="M66.2914 60.4071C65.9479 60.7575 65.6044 61.283 65.6044 61.283C65.6044 60.9326 65.4327 60.5823 65.4327 60.4071C65.6045 60.4071 65.7762 60.232 65.9479 60.0568C66.1197 59.8816 66.1197 59.8816 66.2914 59.7065C66.2914 59.5313 66.4631 59.3561 66.4631 59.181C66.4631 59.0058 66.4631 58.8306 66.4631 58.4803C66.2914 57.4293 64.574 55.8528 64.2305 55.5025C64.2305 55.6777 64.0588 55.8528 64.0588 56.2032C64.0588 56.5535 63.8871 56.9038 63.8871 57.2541C63.8871 57.6045 63.7153 57.9548 63.7153 58.13C63.7153 58.4803 63.7153 58.6555 63.7153 59.0058C63.8871 60.0568 64.7458 60.4071 65.261 60.4071C65.261 60.9326 65.261 61.6333 65.261 61.9836C65.261 61.9836 65.0892 62.1588 64.9175 62.5091C64.7458 62.6843 64.4023 63.0346 64.4023 63.0346C64.4023 63.0346 64.2305 63.2098 64.0588 63.3849C63.8871 63.5601 63.8871 63.5601 63.7153 63.7353C63.5436 63.9104 63.3718 64.0856 63.2001 64.2608C62.8566 64.6111 62.5131 64.9614 62.3414 65.1366C62.1697 65.3118 61.9979 65.4869 61.9979 65.4869C61.9979 65.1366 61.9979 64.7863 61.9979 64.6111C62.1697 64.6111 62.5132 64.4359 62.8566 64.2608C63.2001 64.0856 63.3719 63.5601 63.3719 63.0346C63.3719 61.9836 61.9979 60.0568 61.6545 59.7065C61.4827 59.8816 61.311 60.5823 60.9675 61.1078C60.624 61.8084 60.4523 62.5091 60.4523 62.8594C60.4523 63.9104 61.311 64.4359 61.6545 64.6111C61.6545 65.1366 61.4827 65.8372 61.4827 66.1876L60.4523 67.0634C60.4523 67.0634 60.2805 67.2386 60.1088 67.2386C59.9371 67.4137 59.7653 67.4137 59.7653 67.4137C59.7653 67.4137 59.4218 67.7641 58.9066 67.9392C58.7349 68.1144 58.3914 68.2896 58.3914 68.2896C58.2197 68.4647 58.0479 68.4647 58.0479 68.4647C58.0479 68.1144 58.0479 67.7641 58.0479 67.5889C58.3914 67.5889 59.0784 67.4137 59.2501 66.7131C59.2501 66.5379 59.4219 66.3627 59.4219 66.1876C59.5936 65.1366 58.3914 63.0346 58.2197 62.5091C58.2197 62.6843 58.0479 62.8594 57.8762 63.0346C57.7044 63.2098 57.5327 63.5601 57.361 63.9104C57.0175 64.4359 56.674 65.1366 56.674 65.4869C56.5023 66.5379 57.1892 67.0634 57.7045 67.4137C57.5327 67.7641 57.361 68.4647 57.1892 68.9902L56.1588 69.6909C56.1588 69.6909 55.9871 69.866 55.6436 69.866C55.3001 70.0412 54.9566 70.2164 54.6132 70.3916C54.2697 70.5667 53.7545 70.7419 53.5827 70.9171C53.2392 71.0922 53.0675 71.0922 53.0675 71.0922C53.0675 70.7419 53.2392 70.3916 53.2392 70.2164C53.411 70.2164 53.7545 70.2164 54.0979 70.0412C54.4414 69.8661 54.7849 69.5157 54.9566 68.9902C55.3001 67.9392 54.4414 65.8373 54.2697 65.1366C54.0979 65.3118 54.0979 65.4869 53.9262 65.6621C53.7545 65.8373 53.5827 66.0124 53.2392 66.3627C52.8958 66.8882 52.3806 67.4137 52.2088 67.9392C51.8653 68.9902 52.5523 69.6909 52.8958 70.0412C52.724 70.3916 52.3806 71.0922 52.2088 71.4425C52.2088 71.4425 51.8653 71.6177 51.6936 71.6177C51.5219 71.6177 51.3501 71.7929 51.3501 71.7929C51.1784 71.7929 51.1784 71.7929 51.1784 71.7929L50.3197 72.1432C50.3197 72.1432 50.1479 72.1432 49.9762 72.3184C49.8045 72.3184 49.461 72.4935 49.2892 72.4935C48.774 72.6687 48.2588 72.8439 48.2588 72.8439C48.4306 72.4935 48.4306 72.3184 48.6023 71.968C48.774 71.968 48.9458 71.968 49.2892 71.968C49.6327 71.968 49.8045 71.7929 50.1479 71.6177C50.3197 71.4425 50.3197 71.2674 50.4914 71.0922C50.6632 70.5667 50.6632 69.866 50.6632 68.9902C50.6632 68.2896 50.4914 67.4137 50.3197 67.2386C50.1479 67.4137 49.6327 67.7641 49.1175 68.2896C48.9458 68.4647 48.6023 68.8151 48.4305 68.9902C48.2588 69.1654 48.0871 69.5157 47.9153 69.6909C47.4001 70.7419 47.9153 71.4425 48.2588 71.7929C48.0871 72.1432 47.5719 72.6687 47.4001 73.019C47.4001 73.019 47.0566 73.019 46.7132 73.1942H46.5414C44.3088 73.3694 40.7023 73.7197 40.7023 73.7197C40.7023 73.7197 36.5806 73.5445 34.5197 73.3694C34.5197 73.3694 34.5197 73.3694 34.348 73.3694C34.1762 73.3694 34.0045 73.3694 34.0045 73.3694C33.661 73.3694 33.3175 73.1942 33.3175 73.1942C32.9741 72.8439 32.6306 72.3184 32.4588 71.968C32.8023 71.6177 33.3175 70.917 32.8023 69.866C32.6306 69.6909 32.6306 69.3406 32.2871 69.1654C32.1154 68.9902 31.7719 68.6399 31.6001 68.4647C31.0849 67.9392 30.5697 67.5889 30.398 67.4137C30.398 67.7641 30.2262 68.4647 30.0545 69.1654C30.0545 69.8661 30.0545 70.7419 30.2262 71.2674C30.398 71.4425 30.398 71.6177 30.5697 71.7929C30.7414 71.968 31.0849 72.1432 31.4284 72.1432C31.7719 72.1432 31.9436 72.1432 32.1153 72.1432C32.2871 72.3184 32.2871 72.6687 32.4588 73.019C32.4588 73.019 31.9436 72.8439 31.4284 72.6687C31.2567 72.6687 30.9132 72.4935 30.7415 72.4935C30.5697 72.4935 30.398 72.3184 30.398 72.3184L29.5393 71.968C29.5393 71.968 29.5393 71.968 29.3675 71.968C29.3675 71.968 29.3675 71.968 29.1958 71.968C29.024 71.968 29.024 71.7929 28.8523 71.7929C28.5088 71.6177 28.3371 71.6177 28.3371 71.6177C28.1653 71.2674 27.8219 70.5667 27.6501 70.2164C27.9936 69.8661 28.6806 69.1654 28.3371 68.1144C28.1653 67.5889 27.8219 67.0634 27.3067 66.5379C27.1349 66.3628 26.9632 66.0124 26.6197 65.8373C26.448 65.6621 26.2762 65.4869 26.2762 65.3118C26.1045 65.8372 25.2458 68.1144 25.5893 69.1654C25.761 69.6909 26.1045 70.0412 26.448 70.2164C26.7915 70.3916 27.1349 70.3916 27.3067 70.3916C27.3067 70.5667 27.4784 70.917 27.4784 71.2674C27.4784 71.2674 27.3067 71.0922 26.9632 71.0922C26.6197 70.917 26.2762 70.7419 25.9328 70.5667C25.5893 70.3915 25.2458 70.2164 24.9023 70.0412C24.5588 69.8661 24.3871 69.866 24.3871 69.866L23.3567 69.1654C23.1849 68.8151 23.0132 68.1144 22.8414 67.5889C23.1849 67.4137 23.8719 66.7131 23.8719 65.6621C23.8719 65.1366 23.5284 64.6111 23.1849 64.0856C23.0132 63.7353 22.8414 63.5601 22.6697 63.2098C22.498 63.0346 22.3262 62.6843 22.3262 62.6843C21.9827 63.2098 20.9523 65.3117 20.9523 66.3627C20.9523 66.5379 20.9523 66.7131 21.1241 66.8882C21.4675 67.5889 21.9827 67.7641 22.3262 67.7641C22.3262 67.9392 22.3262 68.2896 22.3262 68.6399C22.3262 68.6399 22.1545 68.6399 21.9828 68.4647C21.811 68.2896 21.6393 68.2896 21.4675 68.1144C21.1241 67.7641 20.6088 67.4137 20.6088 67.4137C20.6088 67.4137 20.4371 67.2386 20.2654 67.2386C20.0936 67.0634 19.9219 67.0634 19.9219 67.0634L18.548 66.0124C18.3762 65.6621 18.3762 64.9614 18.3762 64.4359C18.7197 64.2608 19.5784 63.7353 19.5784 62.6843C19.5784 62.1588 19.4067 61.4581 19.0632 60.9326C18.8915 60.232 18.548 59.7065 18.3762 59.5313C18.0327 60.0568 16.6588 61.8084 16.6588 62.8594C16.6588 63.3849 16.8306 63.7353 17.1741 64.0856C17.5175 64.2608 17.6893 64.4359 18.0328 64.4359C18.0328 64.6111 18.0328 64.9614 18.0328 65.3118C18.0328 65.3118 17.861 65.1366 17.6893 64.9614C17.5175 64.7863 17.1741 64.4359 16.8306 64.0856C16.6588 63.9104 16.4871 63.7353 16.3154 63.5601C16.1436 63.3849 15.9719 63.2098 15.9719 63.2098C15.8001 63.0346 15.6284 62.8594 15.6284 62.8594C15.6284 62.8594 15.4567 62.6843 15.1132 62.3339C14.9415 62.1588 14.7697 61.8084 14.7697 61.8084C14.7697 61.2829 14.7697 60.7575 14.7697 60.232C15.2849 60.232 16.1436 59.8816 16.3154 58.8306C16.3154 58.6555 16.3154 58.3051 16.3154 57.9548C16.3154 57.6045 16.1436 57.2542 16.1436 57.079C16.1436 56.7287 15.9719 56.3783 15.9719 56.028C15.9719 55.6777 15.8001 55.5025 15.8001 55.3273C15.2849 55.6777 13.7393 57.4293 13.5676 58.3051C13.5676 58.4803 13.5676 58.6555 13.5676 59.0058C13.5676 59.181 13.5675 59.3561 13.7393 59.5313C13.7393 59.7065 13.911 59.7065 14.0827 59.8816C14.2545 60.0568 14.4262 60.232 14.598 60.232C14.598 60.4071 14.4262 60.7575 14.4262 61.1078C14.4262 61.1078 14.0828 60.7575 13.7393 60.232C13.3958 59.8816 13.0523 59.3561 13.0523 59.3561L12.3654 59.8816L12.5371 60.232C12.3654 60.232 12.1936 60.232 12.0219 60.232C11.8501 60.232 11.8502 60.232 11.6784 60.232C11.6784 60.0568 11.5067 59.7065 11.3349 59.3561C11.1632 59.0058 10.8197 58.6555 10.3045 58.6555C9.27406 58.4803 7.04146 59.181 6.52625 59.3561C6.69798 59.5313 6.86973 59.7065 7.04147 59.8816C7.21321 60.0568 7.55668 60.4071 7.90016 60.7575C8.58712 61.283 9.27406 61.8084 9.78928 61.8084H9.96102C10.9915 61.8084 11.3349 61.1078 11.5067 60.7575C12.0219 60.9326 12.7089 60.9326 13.0523 61.1078C13.0523 61.1078 13.2241 61.283 13.3958 61.4581C13.5675 61.6333 13.7393 61.9836 14.0827 62.3339C14.2545 62.6843 14.598 62.8594 14.7697 63.2098C14.9415 63.3849 15.1132 63.5601 15.1132 63.5601C15.1132 63.5601 15.4567 63.9104 15.6284 64.2608C15.8002 64.4359 15.9719 64.6111 15.9719 64.6111C16.1436 64.7863 16.1436 64.7863 16.1436 64.7863C15.8002 64.7863 15.4567 64.9614 15.2849 64.9614C15.2849 64.7863 15.1132 64.4359 14.7697 64.0856C14.598 63.7353 14.0828 63.5601 13.5676 63.5601C12.5371 63.5601 10.4762 64.6111 9.96102 64.7863C10.3045 64.9614 10.8197 65.4869 11.6784 65.8373C12.3654 66.1876 13.2241 66.5379 13.7393 66.5379C14.9414 66.5379 15.2849 65.6621 15.2849 65.1366C15.8002 65.1366 16.4871 65.1366 16.8306 65.3118C16.8306 65.3118 17.0023 65.4869 17.1741 65.6621C17.3458 65.8373 17.5175 66.0124 17.861 66.1876C18.0328 66.3627 18.3762 66.5379 18.548 66.7131C18.7197 66.8882 18.8914 66.8882 18.8914 66.8882C18.8914 66.8882 19.2349 67.0634 19.4067 67.4137C19.5784 67.5889 19.7501 67.5889 19.7501 67.7641C19.9219 67.7641 19.9219 67.9392 19.9219 67.9392L20.0936 68.1144C19.9219 68.1144 19.7502 68.2896 19.5784 68.2896C19.4067 68.2896 19.4067 68.2896 19.2349 68.4647C19.0632 68.2896 18.8915 67.9392 18.7197 67.7641C18.3762 67.5889 18.0327 67.4137 17.5175 67.4137C16.4871 67.5889 14.598 68.8151 14.0827 69.1654C14.4262 69.3406 15.1132 69.6909 15.8001 70.0412C16.6588 70.3916 17.3458 70.5667 18.0328 70.5667H18.2045C19.2349 70.3915 19.4067 69.5157 19.4067 68.9902C19.9219 68.9902 20.6088 68.8151 20.9523 68.8151C20.9523 68.8151 21.6393 69.1654 22.3262 69.6909C23.0132 70.0412 23.7001 70.5667 23.7001 70.5667C23.7001 70.5667 23.8719 70.5667 23.8719 70.7419C24.0436 70.7419 24.2153 70.917 24.3871 71.0922C24.7306 71.2674 25.2458 71.4425 25.2458 71.4425C24.9023 71.6177 24.7306 71.7929 24.3871 71.7929C24.2153 71.6177 24.0436 71.2674 23.7001 71.0922C23.3567 70.917 23.0132 70.7419 22.3262 70.9171C21.2958 71.2674 19.7501 72.8439 19.2349 73.3694C19.4067 73.3694 19.7502 73.5445 19.9219 73.7197C20.2654 73.8948 20.6088 73.8949 21.1241 74.07C21.9828 74.2452 22.8415 74.2452 23.3567 74.07C24.3871 73.7197 24.5588 72.6687 24.5588 72.3184C25.0741 72.1432 25.761 71.968 26.1045 71.968C26.1045 71.968 26.2762 71.968 26.448 72.1432C26.6197 72.3184 26.9632 72.3184 27.3067 72.4935C27.8219 72.6687 28.5088 73.019 28.5088 73.019C28.5088 73.019 28.5088 73.019 28.6806 73.019C28.8523 73.019 29.024 73.1942 29.1958 73.1942C29.5393 73.3694 29.8828 73.3694 29.8828 73.3694L30.2262 73.5445C30.0545 73.7197 29.8828 73.7197 29.8828 73.8949C29.711 73.8949 29.711 74.07 29.5393 74.07C29.3675 73.8949 29.1958 73.7197 28.6806 73.5445C28.3371 73.3694 27.8219 73.3694 27.3067 73.5445C26.448 74.07 24.9023 75.8217 24.5588 76.3472C25.2458 76.5223 27.8219 76.8727 28.6806 76.3472C28.6806 76.3472 28.8523 76.3472 28.8523 76.172C29.711 75.6465 29.5393 74.7707 29.5393 74.2452C29.8827 74.07 30.5697 73.7197 31.0849 73.7197C31.0849 73.7197 31.2567 73.7197 31.6001 73.8949C31.9436 74.07 32.2871 74.07 32.6306 74.2452C32.974 74.4203 33.3175 74.4204 33.661 74.4204C34.0045 74.4204 34.1762 74.4204 34.1762 74.4204C35.2067 74.5955 36.7523 74.7707 38.1262 74.9459C38.1262 74.9459 38.298 74.9459 38.4697 74.9459C33.8328 76.5223 32.6306 79.5001 32.6306 79.5001H34.6914C35.2066 77.7485 38.1262 76.3472 40.3588 75.6465C42.4197 76.5223 45.3393 77.9237 46.0262 79.5001H48.0871C48.0871 79.5001 46.8849 76.5223 42.248 74.9459C42.248 74.9459 42.2479 74.9459 42.4197 74.9459C43.7936 74.7707 46.1979 74.5955 47.7436 74.2452C47.9153 74.2452 48.0871 74.2452 48.2588 74.07C48.6023 73.8949 48.9458 73.8948 49.2892 73.7197C49.6327 73.7197 49.8045 73.5445 49.8045 73.5445C50.1479 73.7197 50.8349 73.8949 51.3501 74.2452C51.3501 74.5955 51.1784 75.6465 52.0371 76.172H52.2088C53.2393 76.6975 55.6436 76.3472 56.3305 76.172C55.9871 75.6465 54.6131 73.7197 53.5827 73.3694C53.0675 73.1942 52.5523 73.1942 52.2088 73.3694C51.8653 73.5445 51.5219 73.7197 51.3501 73.8949C51.1784 73.8949 51.1784 73.7197 51.0066 73.7197C50.8349 73.5445 50.6632 73.5445 50.6632 73.3694L51.0066 73.1942C51.0066 73.1942 51.3501 73.019 51.6936 73.019C51.8653 73.019 52.0371 72.8439 52.2088 72.8439C52.3806 72.8439 52.3805 72.8439 52.3805 72.8439C52.3805 72.8439 52.8958 72.6687 53.5827 72.3184C53.9262 72.1432 54.0979 72.1432 54.4414 71.968C54.6131 71.7929 54.7849 71.7929 54.7849 71.7929C55.3001 71.7929 55.9871 72.1432 56.3305 72.1432C56.3305 72.6687 56.3305 73.5445 57.5327 73.8949C58.0479 74.07 58.9066 74.07 59.7653 73.8949C60.1088 73.8949 60.624 73.7197 60.9675 73.5445C61.311 73.3694 61.6545 73.3694 61.6545 73.1942C61.1392 72.6687 59.5936 71.0922 58.5632 70.7419C58.0479 70.5667 57.5327 70.7419 57.1892 70.9171C56.8458 71.0922 56.674 71.4425 56.5023 71.6177C56.3306 71.4425 55.9871 71.4425 55.6436 71.2674C55.6436 71.2674 55.9871 71.0922 56.3305 70.9171C56.5023 70.7419 56.674 70.7419 56.8458 70.5667C57.0175 70.5667 57.0175 70.3916 57.0175 70.3916C57.0175 70.3916 57.7045 70.0412 58.3914 69.5157C59.0784 69.1654 59.7653 68.6399 59.7653 68.6399C60.2805 68.6399 60.9675 68.6399 61.311 68.8151C61.311 69.1654 61.4827 70.0412 62.5132 70.3916H62.6849C63.2001 70.5667 64.0588 70.2164 64.9175 70.0412C65.7762 69.6909 66.4631 69.3406 66.6349 69.1654C66.1197 68.8151 64.2305 67.4137 63.2001 67.4137C62.6849 67.4137 62.1697 67.5889 61.9979 67.7641C61.6545 67.9392 61.4827 68.2896 61.4827 68.4647C61.311 68.4647 61.311 68.4647 61.1392 68.2896C60.9675 68.2896 60.7958 68.1144 60.624 68.1144L60.9675 67.9392C60.9675 67.9392 60.9675 67.9392 61.1392 67.7641C61.311 67.7641 61.311 67.5889 61.4827 67.4137C61.8262 67.2386 61.9979 66.8882 61.9979 66.8882C61.9979 66.8882 62.1697 66.7131 62.3414 66.7131C62.5131 66.5379 62.8566 66.3627 63.0284 66.1876C63.2001 66.0124 63.5436 65.8373 63.7153 65.6621C63.8871 65.4869 64.0588 65.3118 64.0588 65.3118C64.4023 65.1366 65.261 65.1366 65.6044 65.1366C65.7762 65.4869 66.1197 66.5379 67.1501 66.5379C67.6653 66.5379 68.524 66.1876 69.211 65.8373C69.8979 65.4869 70.5849 64.9614 70.9284 64.7863C70.4131 64.4359 68.3523 63.3849 67.3218 63.5601C66.8066 63.5601 66.2914 63.7353 66.1197 64.0856C65.7762 64.4359 65.7762 64.7863 65.6044 64.9614C65.4327 64.9614 65.0892 64.9614 64.7457 64.7863C64.7457 64.7863 64.7458 64.7863 64.9175 64.6111C65.0892 64.4359 65.261 64.2608 65.261 64.2608C65.6044 63.9104 65.9479 63.5601 65.9479 63.5601C65.9479 63.5601 66.1197 63.3849 66.2914 63.2098C66.4632 63.0346 66.8066 62.6843 66.9784 62.3339C67.1501 61.9836 67.4936 61.8085 67.6653 61.4581C67.8371 61.283 68.0088 61.1078 68.0088 61.1078C68.3523 60.9326 69.0392 60.7575 69.5544 60.7575C69.7262 61.1078 70.2414 61.9836 71.1001 61.8084H71.2718C71.787 61.6333 72.474 61.283 73.161 60.7575C73.5044 60.4071 73.8479 60.232 74.0197 60.0568C74.1914 59.8816 74.5349 59.5313 74.5349 59.5313C74.0197 59.3561 71.787 58.6555 70.7566 58.8306C70.2414 59.0058 69.8979 59.181 69.7262 59.5313C69.5545 59.8816 69.3827 60.232 69.3827 60.4071C69.211 60.4071 69.211 60.4071 69.0392 60.4071C68.8675 60.4071 68.6958 60.4071 68.524 60.4071L68.6957 60.0568L68.0088 59.5313C66.9784 59.5313 66.6349 60.0568 66.2914 60.4071Z" fill="#F5EFDB"/>
<path d="M73.5042 47.4443C73.676 46.7436 73.8477 46.2181 73.8477 46.2181C74.1912 45.8678 74.7064 45.5174 75.0499 45.1671C75.3933 45.5174 76.2521 46.0429 77.1107 45.3423C77.626 44.9919 77.9694 44.2913 78.3129 43.4154C78.6564 42.7148 78.8281 41.839 78.9999 41.4886C78.3129 41.6638 76.0803 42.0141 75.3934 42.5396C74.5347 43.2403 74.7064 44.2913 74.8781 44.6416C74.7064 44.8168 74.3629 44.9919 74.0194 44.9919C74.0194 44.9919 74.0194 44.6416 74.1912 44.1161C74.1912 43.5906 74.3629 43.2403 74.3629 43.2403C74.3629 43.2403 74.3629 43.0651 74.3629 42.7148C74.3629 42.3645 74.3629 42.0141 74.5347 41.6638C74.5347 41.3135 74.5347 40.9631 74.5347 40.6128C74.5347 40.2625 74.5347 40.0873 74.5347 40.0873C74.7064 39.737 75.2216 39.2115 75.5651 38.8611C75.9086 39.0363 76.7673 39.3867 77.4542 38.686C77.4542 38.686 77.6259 38.686 77.6259 38.5108C77.9694 38.1605 78.3129 37.2847 78.4846 36.4088C78.6564 35.533 78.8281 34.8323 78.8281 34.482C78.3129 34.6572 76.0803 35.3578 75.3934 36.2337C75.0499 36.584 74.8781 37.1095 74.8781 37.4598C74.8781 37.8102 75.0499 38.1605 75.0499 38.3356C75.0499 38.3356 74.8781 38.5108 74.7064 38.5108C74.5346 38.686 74.3629 38.686 74.3629 38.8611V38.5108V37.1095C74.3629 37.1095 74.3629 36.9343 74.3629 36.7592C74.3629 36.584 74.3629 36.2337 74.3629 35.8833C74.3629 35.533 74.3629 35.1827 74.3629 35.0075C74.3629 34.8324 74.3629 34.6572 74.3629 34.6572C74.5347 34.3068 74.8781 33.6062 75.2216 33.2559C75.5651 33.431 76.5955 33.6062 77.2825 32.7304C77.6259 32.38 77.7977 31.5042 77.9694 30.6284C78.1412 29.7526 78.1412 28.8767 77.9694 28.5264C77.4542 28.8767 75.3933 29.9277 74.7064 30.8035C74.3629 31.329 74.3629 31.6794 74.3629 32.2049C74.3629 32.5552 74.5346 32.9055 74.7064 33.0807C74.5346 33.2559 74.3629 33.431 74.0194 33.7813C74.0194 33.7813 74.0194 33.2559 73.8477 32.9055C73.8477 32.5552 73.676 32.0297 73.676 32.0297C73.676 32.0297 73.676 31.8545 73.676 31.5042C73.676 31.1539 73.5042 30.8035 73.5042 30.4532C73.5042 30.1029 73.3325 29.7525 73.3325 29.4022C73.3325 29.0519 73.1607 28.8767 73.1607 28.8767C73.3325 28.5264 73.5042 27.8257 73.8477 27.3002C74.1912 27.3002 75.2216 27.4754 75.7368 26.5996V26.4244C76.252 25.5486 75.9086 22.9211 75.7368 22.2204C75.2216 22.5708 73.3325 23.9721 72.989 25.0231C72.8173 25.5486 72.8173 26.0741 72.989 26.4244C73.1607 26.7747 73.3325 27.1251 73.5042 27.3002C73.5042 27.4754 73.3325 27.4754 73.3325 27.6506C73.1607 27.8257 73.1607 28.0009 72.989 28.0009L72.8173 27.6506C72.8173 27.6506 72.6455 27.3002 72.6455 26.9499C72.6455 26.7747 72.4738 26.5996 72.4738 26.4244C72.4738 26.2492 72.4738 26.2492 72.4738 26.2492C72.4738 26.2492 72.3021 25.7237 71.9586 25.0231C71.7868 24.6727 71.7868 24.4976 71.6151 24.1473C71.4433 23.9721 71.4434 23.7969 71.4434 23.7969C71.4434 23.2714 71.7868 22.7459 71.7868 22.2204C72.302 22.2204 73.1607 22.2204 73.5042 20.9943C73.676 20.4688 73.676 19.593 73.5042 18.7171C73.5042 18.3668 73.3325 17.8413 73.1607 17.491C72.989 17.1406 72.989 16.7903 72.8173 16.7903C72.3021 17.3158 70.7564 18.8923 70.4129 19.9433C70.2412 20.4688 70.4129 20.9943 70.5847 21.3446C70.7564 21.6949 71.0999 21.8701 71.2716 22.0453C71.0999 22.2204 71.0999 22.5708 70.9281 22.9211C70.9281 22.9211 70.7564 22.5708 70.5847 22.0453C70.4129 21.8701 70.4129 21.6949 70.2412 21.5198C70.2412 21.3446 70.0694 21.3446 70.0694 21.3446C70.0694 21.3446 69.726 20.6439 69.3825 19.9433C69.039 19.2426 68.5238 18.542 68.5238 18.542C68.5238 18.0165 68.5238 17.3158 68.6955 16.9655C69.039 16.9655 69.8977 16.7903 70.2412 15.7393V15.5641C70.4129 15.0386 70.0694 14.1628 69.8977 13.287C69.5542 12.4112 69.2107 11.7105 69.039 11.5353C68.6955 12.0608 67.3216 13.9877 67.1499 15.0387C67.1499 15.5642 67.3216 16.0896 67.4934 16.2648C67.6651 16.6151 68.0086 16.7903 68.1803 16.7903C68.1803 16.9655 68.1803 16.9655 68.0086 17.1406C68.0086 17.3158 67.8368 17.491 67.8368 17.6661L67.6651 17.3158C67.6651 17.3158 67.6651 17.3158 67.4934 17.1406C67.4934 16.9655 67.3216 16.9655 67.1499 16.7903C66.9782 16.44 66.6347 16.2648 66.6347 16.2648C66.6347 16.2648 66.4629 16.0896 66.4629 15.9145C66.2912 15.7393 66.1195 15.389 65.9477 15.2138C65.776 15.0387 65.6042 14.6883 65.4325 14.5132C65.2608 14.338 65.2608 14.1628 65.2608 14.1628C65.089 13.8125 65.089 12.9367 65.089 12.5863C65.4325 12.4112 66.4629 12.0608 66.4629 11.0098C66.4629 10.4843 66.1195 9.60853 65.776 8.90787C65.4325 8.2072 64.9173 7.50654 64.7455 7.15621C64.4021 7.68171 63.3716 9.78369 63.5434 10.8347C63.5434 11.3602 63.7151 11.8857 64.0586 12.0608C64.4021 12.4112 64.7455 12.4112 64.9173 12.5863C64.9173 12.7615 64.9173 13.1118 64.7455 13.4622C64.7455 13.4622 64.7455 13.4622 64.5738 13.287C64.4021 13.1118 64.4021 12.9367 64.2303 12.9367C63.8869 12.5863 63.5434 12.4112 63.5434 12.4112C63.5434 12.4112 63.3716 12.236 63.1999 12.0608C63.0282 11.8857 62.6847 11.5353 62.3412 11.3602C61.9977 11.185 61.826 10.8347 61.4825 10.6595C61.3108 10.4844 61.139 10.3092 61.139 10.3092C60.9673 9.95885 60.7956 9.2582 60.7956 8.7327C61.139 8.55754 61.9977 8.03204 61.826 7.15621V6.98105C61.6542 6.45555 61.3108 5.75488 60.7956 5.05422C60.4521 4.70389 60.2803 4.35356 59.9369 4.17839C59.7651 4.00323 59.4216 3.6529 59.4216 3.6529C59.2499 4.1784 58.5629 6.45554 58.7347 7.50654C58.9064 8.03203 59.0782 8.38236 59.4216 8.55753C59.7651 8.73269 60.1086 8.90787 60.2803 8.90787C60.2803 9.08303 60.2803 9.08302 60.2803 9.25819C60.2803 9.43336 60.2803 9.60853 60.2803 9.78369L60.1086 9.60853C60.1086 9.60853 59.7651 9.43336 59.5934 9.25819C59.4216 9.08302 59.2499 9.08303 59.2499 8.90787C59.0782 8.90787 59.0782 8.7327 59.0782 8.7327C59.0782 8.7327 58.5629 8.38237 58.0477 8.03204C57.7043 7.85687 57.5325 7.6817 57.3608 7.50654C57.189 7.33137 57.0173 7.33137 57.0173 7.33137C56.8455 7.15621 56.8456 6.80587 56.6738 6.63071C56.5021 6.28038 56.5021 6.10521 56.3303 5.93005C56.6738 5.75488 57.5325 5.05422 57.189 4.00323C57.0173 3.47773 56.5021 2.77707 55.8151 2.25157C55.4716 1.90124 55.1282 1.72607 54.9564 1.55091C54.6129 1.37574 54.4412 1.20059 54.2695 1.02542C54.2695 1.37575 54.0977 2.07641 54.0977 2.77708C54.0977 3.47774 54.0977 4.35356 54.2695 4.87906C54.4412 5.40455 54.7847 5.75488 55.1282 5.93005C55.4717 6.10521 55.8151 6.10522 55.9869 6.10522C55.9869 6.28039 56.1586 6.63072 56.1586 6.98105C56.1586 6.98105 54.6129 6.45555 54.0977 6.28038C53.926 6.10522 53.239 5.93005 52.3803 5.57972C52.3803 5.22939 52.5521 4.1784 51.3499 3.6529C50.4912 3.30257 48.0869 3.6529 47.5717 3.6529C47.9151 4.1784 49.289 6.10522 50.1477 6.45555C51.1782 6.80588 51.8651 6.28038 52.0369 5.93005C53.5825 6.80587 55.2999 7.68171 55.4716 7.85688C55.8151 8.03204 56.1586 8.2072 56.5021 8.38236C56.8456 8.55753 57.0173 8.7327 57.0173 8.7327C56.6738 8.90787 56.5021 8.90786 56.1586 9.08303C55.9869 8.90786 55.8151 8.55753 55.4716 8.38236C55.1282 8.2072 54.7847 8.2072 54.2695 8.38236C53.4108 8.73269 52.0369 10.6595 51.6934 11.185C51.8651 11.185 52.0369 11.185 52.3803 11.185C52.7238 11.185 52.8956 11.185 53.239 11.3602C53.926 11.3602 54.613 11.3602 55.1282 11.185C56.1586 10.8347 56.3303 9.95885 56.3303 9.43335C56.8456 9.25819 57.3608 9.25819 57.876 9.25819C57.876 9.25819 58.2195 9.43336 58.3912 9.60853C58.5629 9.60853 58.5629 9.78369 58.7347 9.78369C58.9064 9.78369 58.9064 9.95886 58.9064 9.95886L59.5934 10.4844C59.5934 10.4844 59.9368 10.8347 60.4521 11.185C60.7955 11.5353 61.3108 11.8857 61.3108 11.8857C60.9673 11.8857 60.6238 12.0608 60.4521 12.0608C60.4521 11.8857 60.2803 11.7105 60.1086 11.5353C59.9369 11.3602 59.9369 11.3602 59.7651 11.185C59.5934 11.185 59.4216 11.0098 59.2499 11.0098C59.0782 11.0098 58.9064 11.0098 58.563 11.0098C57.5325 11.185 55.9869 12.9367 55.6434 13.287C55.8151 13.287 55.9869 13.4622 56.3303 13.4622C56.6738 13.4622 57.0173 13.6373 57.3608 13.6373C57.7043 13.6373 58.0477 13.8125 58.2195 13.8125C58.563 13.8125 58.7347 13.8125 59.0782 13.8125C60.1086 13.6373 60.4521 12.7615 60.4521 12.236C60.9673 12.236 61.6543 12.236 61.9977 12.236C61.9977 12.236 62.1695 12.4112 62.5129 12.5863C62.6847 12.7615 63.0281 13.1118 63.0281 13.1118C63.0281 13.1118 63.1999 13.287 63.3716 13.4622C63.5434 13.6373 63.5434 13.6373 63.7151 13.8125C63.8869 13.9877 64.0586 14.1628 64.2303 14.338C64.5738 14.6883 64.7456 15.0387 65.089 15.2138C65.2608 15.389 65.4325 15.5641 65.4325 15.5641C65.089 15.5641 64.7455 15.5641 64.5738 15.5641C64.5738 15.389 64.4021 15.0386 64.2303 14.6883C64.0586 14.338 63.5434 14.1628 63.0281 14.1628C61.9977 14.1628 60.1086 15.5642 59.7651 15.9145C59.9369 16.0896 60.6238 16.2648 61.139 16.6151C61.826 16.9655 62.5129 17.1406 62.8564 17.1406C63.8869 17.1406 64.4021 16.2648 64.5738 15.9145C65.089 15.9145 65.776 16.0896 66.1194 16.0896L66.9781 17.1406C66.9781 17.1406 67.1499 17.3158 67.1499 17.491C67.3216 17.6661 67.3216 17.8413 67.3216 17.8413C67.3216 17.8413 67.6651 18.1916 67.8368 18.7171C68.0086 18.8923 68.1803 19.2426 68.1803 19.2426C68.352 19.4178 68.3521 19.593 68.3521 19.593C68.0086 19.593 67.6651 19.593 67.4934 19.593C67.4934 19.2426 67.3216 18.542 66.6347 18.3668C66.4629 18.3668 66.2912 18.1916 66.1194 18.1916C65.089 18.0165 63.0282 19.2426 62.5129 19.4178C62.6847 19.4178 62.8564 19.593 63.0281 19.7681C63.1999 19.9433 63.5434 20.1185 63.8868 20.2936C64.4021 20.6439 65.089 20.9943 65.4325 20.9943C66.4629 21.1694 66.9781 20.4688 67.3216 19.9433C67.6651 20.1184 68.3521 20.2936 68.8673 20.4688L69.5542 21.5198C69.5542 21.5198 69.726 21.6949 69.726 22.0453C69.8977 22.3956 70.0695 22.7459 70.2412 23.0963C70.4129 23.4466 70.5847 23.9721 70.7564 24.1473C70.9281 24.4976 70.9281 24.6728 70.9281 24.6728C70.5847 24.6728 70.2412 24.4976 70.0694 24.4976C70.0694 24.3224 70.0694 23.9721 69.8977 23.6218C69.726 23.2714 69.3825 22.9211 68.8673 22.7459C67.8368 22.3956 65.776 23.2714 65.089 23.4466C65.4325 23.7969 66.8064 25.1982 67.8368 25.5486C68.8673 25.8989 69.5542 25.1982 69.8977 24.8479C70.2412 25.0231 70.9281 25.3734 71.2716 25.5486C71.2716 25.5486 71.4434 25.8989 71.4434 26.0741C71.4434 26.2492 71.6151 26.4244 71.6151 26.4244C71.6151 26.5996 71.6151 26.5996 71.6151 26.5996L71.9586 27.4754C71.9586 27.4754 71.9586 27.6506 72.1303 27.8257C72.1303 28.0009 72.3021 28.3512 72.3021 28.5264C72.4738 29.0519 72.6455 29.5774 72.6455 29.5774C72.302 29.4022 72.1303 29.4022 71.7868 29.2271C71.7868 29.0519 71.7868 28.8767 71.7868 28.5264C71.7868 28.1761 71.6151 28.0009 71.4434 27.6506C71.2716 27.4754 71.0999 27.4754 70.9281 27.3002C70.4129 27.1251 69.726 27.1251 68.8673 27.1251C68.1803 27.1251 67.3216 27.3002 67.1499 27.4754C67.3216 27.6506 67.6651 28.1761 68.1803 28.7016C68.352 28.8767 68.6955 29.227 68.8673 29.4022C69.039 29.5774 69.3825 29.7526 69.5542 29.9277C70.5847 30.4532 71.2716 29.9277 71.6151 29.5774C71.9586 29.7525 72.4738 30.278 72.8173 30.4532C72.8173 30.4532 72.8173 30.8035 72.989 31.1539C72.989 31.329 72.989 31.5042 72.989 31.5042C72.989 31.6794 72.989 31.6794 72.989 31.6794C72.989 31.6794 72.989 31.8545 73.1607 32.2049C73.1607 32.5552 73.3325 32.9055 73.3325 33.431C73.3325 33.9565 73.5042 34.3068 73.5042 34.6572C73.5042 35.0075 73.5042 35.1827 73.5042 35.1827C73.1607 35.0075 72.989 34.8323 72.8173 34.6572C72.8173 34.482 72.989 34.1317 72.989 33.7813C72.989 33.431 72.8173 33.0807 72.3021 32.7304C71.4434 32.2049 69.2108 32.2049 68.5238 32.2049C68.6955 32.38 68.8673 33.0807 69.2108 33.6062C69.5542 34.1317 69.8977 34.8324 70.4129 35.0075C71.2716 35.533 72.1303 35.1827 72.4738 35.0075C72.8173 35.3578 73.3325 35.7082 73.5042 36.0585C73.5042 36.0585 73.5042 36.4088 73.5042 36.7592C73.5042 37.1095 73.5042 37.4598 73.5042 37.4598V38.3356C73.5042 38.3356 73.5042 38.8612 73.5042 39.3867C73.5042 39.5618 73.5042 39.9121 73.5042 40.0873C73.5042 40.2625 73.5042 40.4376 73.5042 40.4376C73.3325 40.2625 72.989 40.0873 72.8173 39.9121C72.989 39.5618 73.1607 39.0363 72.989 38.3356C72.8173 38.1605 72.8173 37.9853 72.6455 37.8102C71.9586 37.1095 69.5542 36.7592 69.039 36.7592C69.039 37.1095 69.3825 37.635 69.5542 38.3356C69.726 38.8611 70.0694 39.5618 70.4129 39.9121C71.0999 40.6128 72.1303 40.4376 72.4738 40.2625C72.8173 40.6128 73.1607 41.1383 73.3325 41.4886C73.3325 41.4886 73.3325 41.4886 73.3325 41.6638C73.3325 41.839 73.3325 42.0141 73.3325 42.1893C73.3325 42.5396 73.3325 42.89 73.3325 42.89C73.3325 42.89 73.3325 43.0651 73.3325 43.4154C73.3325 43.7658 73.1607 44.1161 73.1607 44.6416C73.1607 44.9919 72.989 45.5174 72.989 45.8678C72.989 46.2181 72.8173 46.3933 72.8173 46.3933C72.6455 46.2181 72.4738 45.8678 72.3021 45.6926C72.6455 45.3423 72.989 44.4664 72.3021 43.5906C71.6151 42.7148 69.5542 42.0141 68.8673 42.0141C68.8673 42.1893 69.039 42.8899 69.2108 43.5906C69.3825 44.2913 69.5542 44.9919 69.8977 45.3423C70.5847 46.2181 71.4434 46.0429 71.9586 46.0429C72.1303 46.3933 72.4738 47.0939 72.6455 47.4443L72.3021 48.6704C72.3021 48.6704 72.302 48.8456 72.1303 49.0208C72.1303 49.1959 71.9586 49.3711 71.9586 49.3711C71.9586 49.3711 71.7868 49.8966 71.6151 50.4221C71.6151 50.5972 71.4434 50.9476 71.4434 51.1227C71.4434 51.2979 71.2716 51.4731 71.2716 51.4731C71.0999 51.2979 70.9281 50.9476 70.7564 50.7724C71.0999 50.5972 71.4433 50.0717 71.2716 49.3711C71.2716 49.1959 71.0999 49.0207 71.0999 48.8456C70.5847 47.9697 68.5238 46.9188 68.0086 46.7436C68.0086 46.9188 68.0086 47.0939 68.0086 47.4443C68.0086 47.7946 68.0086 48.1449 68.0086 48.4953C68.0086 49.1959 68.1803 49.8966 68.3521 50.2469C68.8673 51.1227 69.726 51.2979 70.2412 51.1227C70.4129 51.4731 70.7564 52.1737 70.7564 52.6992L70.2412 53.9254C70.2412 53.9254 70.2412 53.9254 70.2412 54.1005C70.2412 54.1005 70.0694 54.2757 70.0694 54.4509C69.8977 54.8012 69.726 55.1515 69.5542 55.5019C69.3825 55.8522 69.2107 56.2025 69.039 56.5529C68.8673 56.9032 68.6955 57.0784 68.6955 57.0784C68.5238 56.728 68.5238 56.5529 68.3521 56.2025C68.5238 56.0274 68.8673 55.8522 69.039 55.5019C69.2107 55.1515 69.2107 54.8012 69.039 54.2757C68.6955 53.3999 66.8064 51.9986 66.2912 51.6482C66.2912 51.8234 66.2912 51.9986 66.2912 52.3489C66.2912 52.6992 66.2912 52.8744 66.1194 53.2247C66.1194 53.9254 66.1195 54.626 66.2912 55.1515C66.6347 56.2025 67.4934 56.3777 68.0086 56.3777C68.1803 56.9032 68.1803 57.4287 68.1803 57.9542C68.1803 57.9542 68.0086 58.3045 67.8368 58.4797C67.6651 58.6548 67.6651 58.83 67.6651 58.83C67.6651 59.0052 67.4934 59.0052 67.4934 59.0052L66.9781 59.7058L67.6651 60.2313C67.6651 60.2313 67.8368 59.881 68.0086 59.7058C68.1803 59.5307 68.1803 59.3555 68.3521 59.3555C68.3521 59.1803 68.5238 59.1803 68.5238 59.1803C68.5238 59.1803 68.8673 58.6548 69.2108 58.1293C69.3825 57.779 69.5542 57.6038 69.726 57.4287C69.8977 57.2535 69.8977 57.0784 69.8977 57.0784C70.0694 56.9032 70.4129 56.9032 70.5847 56.728C70.9281 56.5529 71.0999 56.5529 71.2716 56.3777C71.4433 56.728 72.1303 57.6039 73.1607 57.0784C73.676 56.9032 74.3629 56.3777 74.8781 55.677C75.2216 55.3267 75.3933 54.9764 75.5651 54.8012C75.7368 54.4509 75.9086 54.2757 76.0803 54.1005C75.7368 54.1005 75.0499 53.9254 74.3629 53.9254C73.676 53.9254 72.8173 53.9254 72.3021 54.1005C71.7868 54.2757 71.4433 54.626 71.2716 54.9764C71.0999 55.3267 71.0999 55.677 71.0999 55.8522C70.9281 55.8522 70.5847 56.0274 70.2412 56.0274C70.2412 56.0274 70.4129 55.677 70.5847 55.3267C70.7564 55.1515 70.7564 54.9764 70.9281 54.8012C70.9281 54.626 71.0999 54.626 71.0999 54.626C71.0999 54.626 71.0999 54.4509 71.2716 54.1005C71.4433 53.7502 71.6151 53.3999 71.7868 53.0495C72.1303 52.3489 72.3021 51.6482 72.3021 51.6482C72.6455 51.2979 73.1608 50.9476 73.676 50.7724C74.0194 51.1227 74.5346 51.6482 75.5651 51.2979H75.7368C76.252 51.1227 76.7673 50.4221 77.2825 49.7214C77.7977 49.0207 78.1412 48.3201 78.3129 47.9697C77.626 47.9697 75.3934 47.9698 74.5347 48.4953C74.0194 48.8456 73.8477 49.1959 73.676 49.5462C73.5042 49.8966 73.676 50.2469 73.676 50.4221C73.5042 50.4221 73.5042 50.5972 73.3325 50.5972C73.1607 50.5972 72.989 50.7724 72.8173 50.7724L72.989 50.4221C72.989 50.4221 72.989 50.4221 72.989 50.2469C72.989 50.0717 73.1607 49.8966 73.1607 49.7214C73.3325 49.3711 73.3325 49.0208 73.3325 49.0208C73.3325 49.0208 73.3325 48.8456 73.5042 48.6704C73.3325 47.9697 73.3325 47.7946 73.5042 47.4443Z" fill="#F5EFDB"/>
<path d="M33.3961 53.4998C33.3374 53.4998 33.3081 53.4084 33.3081 53.2254C33.3081 53.0424 33.3374 52.951 33.3961 52.951C34.6875 52.951 35.6561 52.8747 36.3018 52.7222C36.9768 52.5393 37.4611 52.2343 37.7546 51.8074C38.0481 51.35 38.1948 50.6791 38.1948 49.7948V32.779C38.1948 30.7054 37.7252 29.6686 36.786 29.6686C36.0816 29.6686 34.9517 30.248 33.3961 31.4068L33.3081 31.4525C33.1907 31.4525 33.1026 31.3915 33.0439 31.2696C32.9852 31.1171 32.9852 31.0104 33.0439 30.9494L41.5408 24.5913C41.6582 24.5303 41.7609 24.4998 41.8489 24.4998C41.9076 24.4998 41.9663 24.5303 42.025 24.5913C42.0837 24.6523 42.1131 24.7133 42.1131 24.7743V49.7948C42.1131 50.7096 42.2452 51.3805 42.5093 51.8074C42.7735 52.2343 43.2284 52.5393 43.8741 52.7222C44.5491 52.8747 45.547 52.951 46.8678 52.951C46.9559 52.951 46.9999 53.0424 46.9999 53.2254C46.9999 53.4084 46.9559 53.4998 46.8678 53.4998C45.6938 53.4998 44.7693 53.4846 44.0942 53.4541L40.132 53.4084L36.3018 53.4541C35.5974 53.4846 34.6288 53.4998 33.3961 53.4998Z" fill="#AAAAAA"/>
</svg>
