<svg width="79" height="80" viewBox="0 0 79 80" fill="none" xmlns="http://www.w3.org/2000/svg">
<path d="M73.712 54.8325C73.5517 54.5101 73.2312 54.1876 72.9108 54.0264C72.43 53.5428 71.9493 53.3815 71.9493 53.3815C71.9493 53.3815 71.4686 53.2203 70.8276 53.2203C70.5071 53.2203 70.1866 53.2203 69.7059 53.2203C69.3854 53.2203 68.9047 53.3815 68.5842 53.5428C68.2637 53.704 67.9432 53.8652 67.783 54.0264C67.3022 54.3489 66.9818 54.6713 66.6613 54.9938C66.501 55.155 66.501 55.3162 66.3408 55.3162C66.3408 55.4775 66.1805 55.4774 66.1805 55.4774C66.1805 55.4774 66.6613 55.6387 67.3022 55.7999C67.6227 55.7999 67.9432 55.9611 68.4239 55.9611C68.7444 55.9611 69.2252 55.9611 69.7059 55.7999C70.0264 55.6387 70.3469 55.4775 70.6674 55.3162C71.1481 54.9938 71.4686 54.5101 71.7891 54.1877C72.1095 53.8652 72.1095 53.5428 72.1095 53.5428C72.1095 53.5428 71.9493 53.8652 71.9493 54.3489C71.7891 54.8326 71.7891 55.3162 71.7891 55.9611C71.7891 56.2836 71.7891 56.606 71.9493 57.0897C72.1096 57.5733 72.2698 57.8958 72.43 58.2182C72.5903 58.5407 72.9108 58.8632 73.071 59.1856C73.5517 59.6693 73.8722 59.9917 73.8722 59.9917C73.8722 59.9917 73.8722 59.9917 74.0325 59.8305C74.0325 59.6693 74.1927 59.5081 74.353 59.3468C74.5132 58.8632 74.6734 58.2183 74.6734 57.5734C74.6734 57.2509 74.6734 56.7672 74.5132 56.4448C74.1927 55.4774 74.0325 55.155 73.712 54.8325Z" fill="#F5EFDB"/>
<path d="M76.2757 50.4795C76.1155 49.9959 75.795 49.6734 75.4745 49.3509C75.154 49.0285 74.8335 48.8673 74.6733 48.7061C74.0323 48.3836 73.7118 48.2224 73.7118 48.2224C73.7118 48.2224 73.2311 48.2224 72.5901 48.2224C72.2696 48.2224 71.9492 48.2224 71.4684 48.3836C71.1479 48.5448 70.6672 48.5448 70.3467 48.8673C70.0262 49.0285 69.7057 49.351 69.3852 49.5122C69.0648 49.8346 68.9045 49.9958 68.7443 50.3183C68.584 50.6407 68.4238 50.802 68.4238 50.9632C68.2635 51.1244 68.2635 51.2857 68.2635 51.2857C68.2635 51.2857 68.7443 51.4468 69.3852 51.4468C70.0262 51.4468 70.8274 51.4469 71.6286 51.1244C71.9491 50.9632 72.2696 50.6407 72.5901 50.3183C72.9106 49.9958 73.0708 49.6734 73.2311 49.5122C73.5516 49.0285 73.7118 48.5448 73.7118 48.3836C73.7118 48.3836 73.5516 48.8673 73.5516 49.5122C73.5516 49.8346 73.5516 50.157 73.5516 50.6407C73.5516 50.9632 73.7118 51.4469 73.8721 51.7693C74.1926 52.5754 74.8335 53.2203 75.3143 53.704C75.795 54.1877 76.2757 54.3489 76.2757 54.3489C76.2757 54.3489 76.2757 54.1877 76.436 54.0264C76.436 53.8652 76.5962 53.5428 76.5962 53.2203C76.5962 52.8979 76.5962 52.4142 76.5962 51.9305C76.5962 51.4469 76.436 50.9632 76.2757 50.4795Z" fill="#F5EFDB"/>
<path d="M77.8785 46.1271C77.7183 45.6434 77.5581 45.321 77.3978 44.8373C77.0773 44.5149 76.9171 44.1924 76.5966 43.87C76.2761 43.5475 75.9556 43.3863 75.6351 43.3863C74.9942 43.0638 74.5134 43.0639 74.5134 43.0639C74.5134 43.0639 74.0327 43.0639 73.3917 43.2251C73.0712 43.2251 72.7508 43.3863 72.27 43.5475C71.9495 43.7087 71.4688 43.87 71.1483 44.1924C70.8278 44.5149 70.5074 44.6761 70.3471 44.9985C70.1869 45.321 70.0266 45.6434 69.8664 45.8046C69.7061 46.2883 69.5459 46.772 69.5459 46.772C69.5459 46.772 70.0266 46.772 70.6676 46.772C71.3086 46.772 72.1098 46.6108 72.911 45.9659C73.2315 45.6434 73.552 45.4822 73.7122 45.1598C73.8725 44.8373 74.0327 44.5149 74.1929 44.1924C74.3532 43.5475 74.5134 43.0639 74.5134 43.0639C74.5134 43.0639 74.5134 43.5475 74.5134 44.1924C74.5134 44.5149 74.6737 44.8373 74.6737 45.321C74.8339 45.6434 74.9942 46.1271 75.1544 46.4496C75.6351 47.2557 76.2761 47.7394 76.9171 48.0618C77.5581 48.3843 77.8785 48.5455 77.8785 48.5455C77.8785 48.5455 78.0388 48.0618 78.0388 47.2557C78.0388 46.9333 78.0388 46.6108 77.8785 46.1271Z" fill="#F5EFDB"/>
<path d="M78.8396 41.9349C78.8396 41.4513 78.6794 40.8064 78.3589 40.1615C78.1987 39.839 78.0384 39.5166 77.7179 39.1942C77.077 38.5493 76.2758 38.2268 75.6348 38.0656C74.9938 37.9043 74.5131 37.9043 74.5131 37.9043C74.5131 37.9043 74.0324 37.9043 73.3914 38.2268C72.7504 38.388 71.9492 38.8717 71.4685 39.5166C71.148 39.839 70.9877 40.0002 70.8275 40.3227C70.507 40.8064 70.3468 41.29 70.3468 41.7737C70.3468 41.9349 70.3468 42.0962 70.1865 42.2574C70.1865 42.4186 70.1865 42.4186 70.1865 42.4186C70.1865 42.4186 70.6672 42.4186 71.3082 42.2574C71.9492 42.0962 72.7504 41.7737 73.3914 41.1288C73.7119 40.8064 73.8721 40.6451 74.0323 40.3227C74.3528 39.839 74.3528 39.1941 74.5131 38.8717C74.5131 38.388 74.5131 38.0656 74.5131 38.0656C74.5131 38.0656 74.5131 38.388 74.6733 38.8717C74.8336 39.3554 74.8336 39.839 75.1541 40.4839C75.3143 40.8064 75.4745 41.1288 75.795 41.4513C76.436 42.0962 77.077 42.5798 77.7179 42.7411C78.3589 43.0635 78.8396 43.0635 78.8396 43.0635V42.9023C78.8396 42.4186 78.8396 42.0962 78.8396 41.9349Z" fill="#F5EFDB"/>
<path d="M63.1358 66.1184C63.1358 66.1184 62.8153 65.796 62.1743 65.4735C61.5334 65.1511 60.8924 64.8286 59.9309 64.6674C59.6105 64.6674 59.29 64.6674 58.9695 64.6674C58.3285 64.8286 57.8478 64.9898 57.5273 65.1511C57.2068 65.3123 56.8863 65.4735 56.8863 65.4735C56.8863 65.4735 57.2068 65.796 57.6875 66.2797C58.1682 66.7633 58.9695 67.0858 59.7707 67.247C60.0912 67.247 60.4117 67.247 60.7322 67.247C61.3731 67.0858 61.8539 66.9246 62.1743 66.6021C62.9756 66.4409 63.1358 66.2797 63.1358 66.1184C63.1358 66.1184 62.8153 66.4409 62.6551 66.7633C62.3346 67.0858 62.0141 67.5695 61.8539 68.0532C61.6936 68.3756 61.5334 68.6981 61.5334 69.0205C61.3731 69.8266 61.5334 70.794 61.6936 71.4389C61.8539 72.0838 62.1743 72.5674 62.1743 72.5674C62.1743 72.5674 62.4948 72.4062 62.8153 72.0838C63.1358 71.7613 63.6166 71.2777 63.937 70.6328C64.0973 70.3103 64.2575 69.9878 64.2575 69.5042C64.4178 68.5368 64.0973 67.7307 63.937 67.0858C63.4563 66.6021 63.1358 66.1184 63.1358 66.1184Z" fill="#F5EFDB"/>
<path d="M66.8213 62.4102C66.8213 62.4102 66.3406 62.0877 65.8598 61.9265C65.2189 61.604 64.4176 61.4428 63.6164 61.4428C63.4562 61.4428 63.1357 61.4429 62.9755 61.6041C62.8152 61.6041 62.655 61.7653 62.4947 61.7653C62.1742 61.9265 61.8537 62.0877 61.6935 62.249C61.373 62.4102 61.2128 62.5714 61.0525 62.5714C60.8923 62.7327 60.8923 62.7326 60.8923 62.7326C60.8923 62.7326 61.2128 63.0551 61.8537 63.3776C62.1742 63.5388 62.4947 63.7 62.8152 63.8612C62.9754 63.8612 63.1357 64.0225 63.4562 64.0225C63.6164 64.0225 63.9369 64.0225 64.0972 64.0225C64.5779 64.0225 64.8984 63.8612 65.2189 63.7C65.5393 63.5388 65.8598 63.3776 66.1803 63.2163C66.3406 62.7327 66.6611 62.4102 66.8213 62.4102C66.8213 62.4102 66.5008 62.8939 66.1803 63.3776C66.0201 63.7 65.8598 64.0224 65.6996 64.3449C65.5394 64.6673 65.5394 65.151 65.5394 65.4735C65.5394 65.6347 65.5394 65.9571 65.5394 66.1184C65.5394 66.2796 65.5394 66.602 65.6996 66.7632C65.8598 67.0857 65.8598 67.5694 66.0201 67.8918C66.3406 68.5367 66.6611 68.8592 66.6611 68.8592C66.6611 68.8592 66.8213 68.698 66.9816 68.5367C67.1418 68.3755 67.302 68.0531 67.4623 67.8918C67.6225 67.5694 67.7828 67.2469 67.943 66.7632C67.943 66.602 68.1033 66.2796 68.1033 66.1184C68.1033 65.9571 68.1033 65.6347 68.1033 65.4735C68.1033 64.5061 67.7828 63.7 67.4623 63.2163C67.1418 62.7327 66.8213 62.4102 66.8213 62.4102Z" fill="#F5EFDB"/>
<path d="M70.6672 58.8627C70.1865 58.3791 69.866 58.0566 69.866 58.0566C69.866 58.0566 69.3853 57.8954 68.7443 57.7342C68.1033 57.573 67.3021 57.4118 66.5009 57.573C65.6997 57.7342 65.0587 58.2179 64.578 58.5403C64.4177 58.7016 64.0972 58.8628 64.0972 59.024C63.937 59.1852 63.937 59.1852 63.937 59.1852C63.937 59.1852 64.4177 59.5076 64.8985 59.6689C65.5394 59.9913 66.3407 60.1526 67.1419 59.9913C67.6226 59.9913 67.9431 59.8301 68.2636 59.5076C68.5841 59.3464 68.9046 59.024 69.0648 58.8627C69.225 58.7015 69.5455 58.3791 69.5455 58.2179C69.7058 58.0566 69.7058 57.8954 69.7058 57.8954C69.7058 57.8954 69.5455 58.0566 69.5455 58.2179C69.3853 58.3791 69.3853 58.7015 69.225 59.024C69.0648 59.3464 69.0648 59.6689 68.9046 60.1526C68.9046 60.475 68.7443 60.9587 68.9046 61.4423C69.0648 62.4097 69.3853 63.0546 69.7058 63.6995C70.0263 64.3444 70.3468 64.6668 70.3468 64.6668C70.3468 64.6668 70.507 64.5056 70.507 64.3444C70.6672 64.1831 70.8275 63.8607 70.9877 63.5382C71.3082 62.8933 71.6287 61.926 71.4685 61.1199C71.4685 59.9913 70.9877 59.3464 70.6672 58.8627Z" fill="#F5EFDB"/>
<path d="M49.0344 72.89C48.7139 72.4063 48.0729 71.6002 47.4319 71.2777C47.1114 71.1165 46.7909 70.9553 46.4704 70.794C46.15 70.6328 45.9897 70.6328 45.6692 70.6328C45.3487 70.6328 45.1885 70.6328 45.0283 70.6328C44.7078 70.6328 44.3873 70.6328 44.3873 70.6328C44.3873 70.6328 44.5475 71.1165 44.7078 71.7614C45.0283 72.4063 45.509 73.0512 46.15 73.5349C46.4704 73.6961 46.7909 73.8573 47.1114 73.8573C48.2331 74.1798 49.3548 73.8573 49.5151 73.8573C49.3548 73.8573 48.3934 74.1798 47.4319 74.9859C47.1114 75.1471 46.9512 75.4695 46.6307 75.792C46.15 76.4369 45.8295 77.4042 45.6692 78.0491C45.509 78.694 45.509 79.1777 45.509 79.1777C45.509 79.1777 45.8295 79.1777 46.3102 79.0165C46.4705 79.0165 46.7909 78.8553 47.1114 78.6941C47.4319 78.5328 47.7524 78.3716 47.9127 78.2104C48.2331 78.0491 48.5536 77.7267 48.7139 77.4042C49.1946 76.5981 49.3548 75.792 49.3548 75.1471C49.3548 74.5022 49.3548 74.0185 49.3548 74.0185C49.3548 74.0185 49.3548 73.3736 49.0344 72.89Z" fill="#F5EFDB"/>
<path d="M54.4827 72.0841C54.4827 72.0841 54.1622 71.6004 53.8417 71.1167C53.361 70.633 52.72 69.9881 52.079 69.6657C51.7585 69.5045 51.2778 69.3432 50.9573 69.3432C50.6368 69.3432 50.3164 69.3432 49.9959 69.3432C49.3549 69.3432 49.0344 69.5045 49.0344 69.5045C49.0344 69.5045 49.1947 69.9881 49.5152 70.4718C49.8356 70.9555 50.4766 71.6004 51.2778 72.0841C52.079 72.4065 52.8803 72.4065 53.5212 72.2453C54.002 72.2453 54.4827 72.0841 54.4827 72.0841C54.4827 72.0841 54.002 72.2453 53.5212 72.729C53.0405 73.0514 52.3995 73.6963 52.079 74.5024C51.5983 75.3086 51.5983 76.1147 51.4381 76.7596C51.4381 77.4045 51.5983 77.8882 51.5983 77.8882C51.5983 77.8882 52.079 77.7269 52.72 77.4044C53.0405 77.2432 53.361 76.9208 53.6815 76.5983C54.0019 76.2759 54.3224 75.9535 54.4827 75.4698C54.9634 74.6637 54.9634 73.6963 54.8032 73.0514C54.6429 72.4065 54.4827 72.0841 54.4827 72.0841Z" fill="#F5EFDB"/>
<path d="M59.13 69.3426C59.13 69.3426 58.8095 69.0201 58.3288 68.5364C57.848 68.0528 57.0468 67.5691 56.2456 67.4079C55.7648 67.2467 55.4444 67.2467 55.1239 67.2467C54.8034 67.2467 54.4829 67.4079 54.1624 67.4079C53.5214 67.5691 53.2009 67.7303 53.2009 67.7303C53.2009 67.7303 53.5214 68.214 53.8419 68.6977C54.3227 69.1814 54.9636 69.665 55.7648 69.9875C56.0853 70.1487 56.5661 70.1487 56.8865 70.1487C57.207 70.1487 57.6878 69.9875 57.848 69.9875C58.6492 69.665 58.9697 69.5038 59.13 69.3426C59.13 69.3426 58.6492 69.665 58.1685 70.1487C58.0083 70.3099 57.6878 70.6324 57.5275 70.9548C57.3673 71.2773 57.0468 71.5997 56.8865 72.0834C56.5661 72.8895 56.5661 73.8569 56.7263 74.5018C56.8866 75.1467 57.0468 75.6303 57.0468 75.6303C57.0468 75.6303 57.5275 75.4691 58.1685 74.9854C58.489 74.8242 58.8095 74.5017 58.9697 74.1793C59.2902 73.8568 59.4504 73.3732 59.6107 73.0508C59.9312 72.2446 59.7709 71.2773 59.6107 70.6324C59.2902 69.8263 59.13 69.3426 59.13 69.3426Z" fill="#F5EFDB"/>
<path d="M33.9718 73.8582C33.8116 73.2134 33.6514 72.4072 33.1706 71.6011C33.0104 71.2786 32.6899 71.1174 32.5297 70.795C32.3694 70.6337 32.0489 70.4725 31.8887 70.3113C31.7285 70.1501 31.408 69.9888 31.2477 69.9888C30.9272 69.8276 30.6068 69.6664 30.6068 69.6664C30.6068 69.6664 30.4465 70.1501 30.4465 70.795C30.4465 71.4398 30.6068 72.246 31.0875 73.0521C31.2477 73.3746 31.5682 73.5358 31.7284 73.8582C31.8887 74.0195 32.2092 74.1807 32.3694 74.3419C32.5297 74.5031 32.8502 74.5031 33.0104 74.6644C33.4911 74.8256 33.6514 74.8256 33.8116 74.8256C33.8116 74.8256 33.4911 74.8256 33.0104 74.8256C32.8502 74.8256 32.5297 74.8256 32.2092 74.8256C31.8887 74.8256 31.5682 74.8256 31.408 74.9868C31.0875 74.9868 30.767 75.148 30.4465 75.3093C29.6453 75.7929 29.0043 76.2766 28.6838 76.9215C28.3633 77.4052 28.0428 77.8889 28.0428 77.8889C28.0428 77.8889 28.3633 78.05 28.8441 78.05C29.1646 78.05 29.3248 78.05 29.6453 78.05C29.9658 78.05 30.2863 78.0501 30.6068 77.8889C30.9272 77.8889 31.2477 77.7276 31.7284 77.5664C32.5297 77.0827 33.0104 76.4378 33.3309 75.7929C33.6514 75.148 33.8116 74.6644 33.8116 74.6644C33.8116 74.6644 34.1321 74.5031 33.9718 73.8582Z" fill="#F5EFDB"/>
<path d="M37.9776 72.2451C37.6571 71.9226 37.3366 71.7614 37.0162 71.439C36.6957 71.2777 36.3752 71.1165 36.2149 70.9553C35.7342 70.794 35.2535 70.6328 35.2535 70.6328C35.2535 70.6328 35.2535 71.1165 35.2535 71.7614C35.4137 72.4063 35.574 73.2124 36.2149 73.8573C36.5354 74.1798 36.8559 74.341 37.1764 74.6634C37.4969 74.8247 37.8174 74.9859 38.1378 75.1471C38.7788 75.3083 39.2595 75.3083 39.2595 75.3083C39.2595 75.3083 38.7788 75.3083 38.1378 75.4696C37.8174 75.4696 37.4969 75.6308 37.1764 75.792C36.8559 75.9532 36.3752 76.1144 36.0547 76.4369C35.4137 76.9205 34.933 77.7267 34.6125 78.2103C34.292 78.8552 34.1318 79.3389 34.1318 79.3389C34.1318 79.3389 34.6125 79.3389 35.4137 79.3389C36.2149 79.3389 37.0162 79.0165 37.8174 78.5328C38.6186 77.8879 38.9391 77.243 39.0993 76.5981C39.2596 75.9532 39.4198 75.4696 39.4198 75.4696C39.4198 75.4696 39.4198 74.9859 39.2595 74.341C38.7788 73.5349 38.4583 72.89 37.9776 72.2451Z" fill="#F5EFDB"/>
<path d="M44.0672 74.0183C43.7468 73.3734 43.4263 72.7285 42.7853 72.0836C42.4648 71.7611 42.1443 71.5999 41.8238 71.4387C41.5034 71.2775 41.1829 71.2774 40.8624 71.1162C40.2214 70.955 39.9009 70.955 39.9009 70.955C39.9009 70.955 39.9009 71.4387 40.0611 72.0836C40.2214 72.7285 40.5419 73.5346 41.1828 74.0183C41.8238 74.5019 42.6251 74.8244 43.266 74.8244C43.907 74.8244 44.3877 74.8244 44.3877 74.8244C44.3877 74.8244 43.907 74.8244 43.266 75.1469C42.6251 75.3081 41.9841 75.6305 41.3431 76.2754C40.7021 76.9203 40.3816 77.7265 40.0611 78.3714C39.9009 79.0163 39.7407 79.5 39.7407 79.5C39.7407 79.5 40.2214 79.4999 41.0226 79.3387C41.3431 79.3387 41.8238 79.1775 42.1443 78.855C42.4648 78.6938 42.9455 78.3713 43.266 78.0489C43.907 77.404 44.2275 76.5979 44.2275 75.953C44.3877 75.3081 44.3877 74.8244 44.3877 74.8244C44.3877 74.8244 44.3877 74.5019 44.0672 74.0183Z" fill="#F5EFDB"/>
<path d="M19.5496 69.0206C19.5496 69.0206 19.7099 68.5369 20.0304 67.892C20.1906 67.2471 20.3509 66.441 20.3509 65.6349C20.3509 65.3124 20.1906 64.99 20.0304 64.6675C19.8701 64.1838 19.5496 63.7002 19.2292 63.3777C19.0689 63.2165 19.0689 63.0553 18.9087 63.0553C18.7484 63.0553 18.7484 62.894 18.7484 62.894C18.7484 62.894 18.4279 63.2165 18.1075 63.8614C17.787 64.5063 17.6267 65.3124 17.6267 66.1185C17.6267 66.441 17.787 66.7634 17.9472 67.0859C18.5882 68.3757 19.5496 69.0206 19.5496 69.0206C19.3894 69.0206 18.5882 68.3757 17.3062 68.0533C16.9858 68.0533 16.6653 67.892 16.1845 67.892C15.3833 67.892 14.4219 68.2145 13.9411 68.5369C13.3001 68.8594 12.9797 69.1818 12.9797 69.1818C12.9797 69.1818 12.9797 69.1818 13.1399 69.343C13.3001 69.5043 13.4604 69.5043 13.6206 69.6655C14.1014 69.9879 14.5821 70.3104 15.2231 70.4716C15.5436 70.6328 16.0243 70.6329 16.3448 70.6329C17.3062 70.6329 18.1075 70.1492 18.5882 69.8267C19.2292 69.5043 19.5496 69.0206 19.5496 69.0206Z" fill="#F5EFDB"/>
<path d="M24.0365 71.7618C24.0365 71.7618 24.1968 71.2781 24.357 70.6332C24.5173 69.9883 24.5173 69.1822 24.357 68.3761C24.1968 67.8924 24.0365 67.57 23.8763 67.2475C23.7161 67.0863 23.716 66.925 23.5558 66.7638C23.3955 66.6026 23.3956 66.4414 23.2353 66.4414C22.9148 65.9577 22.4341 65.7965 22.4341 65.7965C22.4341 65.7965 22.2738 66.2802 21.9534 66.925C21.7931 67.5699 21.6329 68.3761 21.7931 69.1822C21.9534 69.6658 22.1136 69.9883 22.2739 70.3108C22.4341 70.6332 22.7546 70.9557 22.9148 71.1169C23.5558 71.4393 24.0365 71.7618 24.0365 71.7618C24.0365 71.7618 23.5558 71.4393 22.9148 71.2781C22.5943 71.2781 22.2739 71.1169 21.7931 71.1169C21.4726 71.1169 20.9919 71.1169 20.5112 71.1169C19.7099 71.2781 18.9087 71.7618 18.428 72.0842C17.9473 72.5679 17.6268 72.8904 17.6268 72.8904C17.6268 72.8904 18.1075 73.2128 18.7485 73.374C18.9087 73.374 19.069 73.5352 19.2292 73.5352C19.3895 73.5352 19.71 73.6965 19.8702 73.6965C20.3509 73.6965 20.6714 73.6965 21.1521 73.6965C22.1136 73.5353 22.7546 73.0516 23.2353 72.5679C23.8763 72.2454 24.0365 71.7618 24.0365 71.7618Z" fill="#F5EFDB"/>
<path d="M29.004 73.6958C29.004 73.6958 29.1643 73.2121 29.1643 72.5672C29.1643 71.9223 29.1643 71.1162 28.6836 70.3101C28.5233 69.9876 28.3631 69.6651 28.0426 69.3427C27.8823 69.0202 27.5619 68.859 27.4016 68.6978C26.9209 68.3753 26.6004 68.2141 26.6004 68.2141C26.6004 68.2141 26.4402 68.6978 26.2799 69.3427C26.1197 69.9876 26.1197 70.7937 26.4401 71.5998C26.6004 71.9223 26.7606 72.2448 27.0811 72.5672C27.4016 72.8897 27.5619 73.0509 27.8823 73.2121C28.3631 73.5345 28.8438 73.6958 29.004 73.6958C29.004 73.6958 28.5233 73.5346 27.8823 73.5346C27.5619 73.5346 27.2414 73.5346 26.7606 73.5346C26.4401 73.5346 25.9594 73.6958 25.6389 73.6958C24.8377 74.0183 24.1968 74.5019 23.716 74.9856C23.2353 75.4693 23.0751 75.953 23.0751 75.953C23.0751 75.953 23.5558 76.1142 24.1968 76.2754C24.5172 76.4366 24.998 76.4366 25.3185 76.4366C25.7992 76.4366 26.1197 76.4366 26.6004 76.2754C27.4016 75.953 28.0426 75.308 28.5233 74.8244C28.6835 74.1795 29.004 73.6958 29.004 73.6958Z" fill="#F5EFDB"/>
<path d="M8.01225 57.7351C8.65322 57.5739 9.13395 57.4126 9.13395 57.4126C9.13395 57.4126 9.45444 57.0902 9.93517 56.6065C10.0954 56.4453 10.4159 56.1228 10.5762 55.8004C10.7364 55.4779 11.0569 55.1555 11.0569 54.6718C11.2171 54.3494 11.2171 54.0269 11.2171 53.7045C11.2171 53.0596 11.2171 52.5759 11.0569 52.2534C11.0569 52.0922 10.8966 51.931 10.8966 51.7698C10.8966 51.6086 10.8966 51.6086 10.8966 51.6086C10.8966 51.6086 10.4159 51.7698 9.93517 52.2534C9.61468 52.4147 9.45444 52.7371 9.13395 53.0596C8.81346 53.382 8.65323 53.7045 8.49298 54.1881C8.33274 54.5106 8.33273 54.8331 8.33273 55.1555C8.33273 55.8004 8.49299 56.2841 8.65324 56.7677C8.81348 57.2514 8.97372 57.4126 8.97372 57.5739C8.97372 57.5739 8.81347 57.2514 8.49298 56.929C8.1725 56.6065 7.85202 56.1228 7.37128 55.8004C7.0508 55.6392 6.7303 55.3167 6.40981 55.3167C5.92908 55.1555 5.60859 54.9943 5.12786 54.9943C4.64713 54.9943 4.32665 54.9943 4.00616 54.9943C3.36519 54.9943 2.88446 55.1555 2.88446 55.1555C2.88446 55.1555 2.88447 55.1555 3.04471 55.3167C3.04471 55.478 3.20495 55.6392 3.3652 55.8004C3.68568 56.2841 4.00617 56.7677 4.4869 57.2514C4.80738 57.4126 5.12788 57.7351 5.44837 57.8963C5.9291 58.0575 6.24957 58.2188 6.7303 58.2188C7.21103 57.8963 7.69176 57.8963 8.01225 57.7351Z" fill="#F5EFDB"/>
<path d="M10.8964 62.4112C11.5374 62.25 11.8578 61.9275 11.8578 61.9275C11.8578 61.9275 12.1783 61.605 12.6591 61.1213C12.9796 60.6377 13.4603 59.8316 13.6205 59.0254C13.6205 58.5418 13.6205 58.2193 13.6205 57.8969C13.6205 57.5744 13.4603 57.252 13.4603 56.9295C13.3 56.4459 13.1398 55.9622 13.1398 55.9622C13.1398 55.9622 12.8193 56.2846 12.3386 56.7683C11.8578 57.252 11.3771 57.8969 11.2169 58.8642C11.0566 59.6703 11.2169 60.4765 11.5373 61.1213C11.6976 61.4438 11.8578 61.6051 11.8578 61.7663C12.0181 61.9275 12.0181 62.0887 12.0181 62.0887C11.8578 61.9275 10.8964 60.6377 9.13369 60.154C8.33247 59.9928 7.37101 59.9928 6.73004 60.154C6.08906 60.3153 5.60834 60.4765 5.60834 60.4765C5.60834 60.4765 5.92882 60.9601 6.40955 61.4438C6.73004 61.7663 6.89029 61.9275 7.37103 62.2499C7.69151 62.4112 8.17225 62.7336 8.65298 62.7336C9.4542 62.7336 10.2554 62.5724 10.8964 62.4112Z" fill="#F5EFDB"/>
<path d="M14.582 66.4409C15.223 66.1185 15.5435 65.796 15.5435 65.796C15.5435 65.796 15.864 65.4736 16.1845 64.8287C16.3447 64.5062 16.505 64.1838 16.6652 63.8613C16.6652 63.7001 16.8254 63.5389 16.8254 63.2164C16.8254 63.0552 16.8254 62.7328 16.8254 62.5715C16.8254 62.0879 16.8255 61.7654 16.6652 61.4429C16.505 61.1205 16.5049 60.798 16.3447 60.4756C16.1845 60.1531 16.0242 59.9919 16.0242 59.8307C15.864 59.6695 15.864 59.6695 15.864 59.6695C15.864 59.6695 15.5435 59.9919 15.0628 60.4756C14.7423 60.9593 14.2616 61.7654 14.2616 62.5715C14.2616 62.7328 14.2616 63.0552 14.2616 63.2164C14.2616 63.3777 14.4218 63.5389 14.4218 63.7001C14.582 64.0225 14.7423 64.345 14.9025 64.6674C15.223 65.1511 15.5435 65.4736 15.7037 65.6348C15.7037 65.6348 15.223 65.3124 14.7423 64.9899C14.4218 64.8287 14.1013 64.6674 13.7808 64.5062C13.6206 64.5062 13.4603 64.345 13.1398 64.345C12.9796 64.345 12.8193 64.1838 12.4989 64.1838C11.6976 64.0226 10.7362 64.345 10.0952 64.5062C9.45423 64.6674 9.13373 64.9899 9.13373 64.9899C9.13373 64.9899 9.29398 65.1511 9.29398 65.3123C9.45423 65.4736 9.61446 65.6348 9.93495 65.9572C10.2554 66.1184 10.5759 66.4409 10.8964 66.6022C11.2169 66.7634 11.6976 66.9246 12.1784 66.9246C12.3386 66.9246 12.6591 66.9246 12.8193 66.9246C12.9796 66.9246 13.3001 66.9246 13.4603 66.7633C13.9411 66.7633 14.2615 66.6021 14.582 66.4409Z" fill="#F5EFDB"/>
<path d="M1.44179 41.1284C2.08277 41.7733 2.88397 42.0957 3.52494 42.257C4.16592 42.4182 4.64667 42.4182 4.64667 42.4182C4.64667 42.4182 5.12739 42.4182 5.76837 42.0957C6.40934 41.9345 7.21055 41.4509 7.69128 40.806C8.01177 40.4835 8.17201 40.3223 8.33225 39.9998C8.65274 39.5162 8.81298 39.0324 8.81298 38.5488C8.81298 38.3876 8.81299 38.2263 8.97324 38.0651C8.97324 37.9039 8.97324 37.9039 8.97324 37.9039C8.97324 37.9039 8.49251 37.9039 7.85154 38.0651C7.21056 38.2263 6.40934 38.5488 5.76837 39.1937C5.44788 39.5162 5.28762 39.6774 5.12738 39.9998C4.80689 40.4835 4.80691 41.1284 4.64667 41.4508C4.64667 41.9345 4.64667 42.257 4.64667 42.257C4.64667 42.257 4.64666 41.9345 4.48641 41.4508C4.32617 40.9672 4.32616 40.4835 4.00568 39.9998C3.84543 39.6774 3.6852 39.3549 3.36471 39.0325C2.72374 38.3876 2.08277 37.9039 1.44179 37.5815C0.800819 37.259 0.320068 37.259 0.320068 37.259V37.4202C0.320068 37.5815 0.320068 37.7427 0.320068 38.0651C0.320068 38.5488 0.480317 39.1937 0.800804 39.8386C0.961048 40.4835 1.12131 40.8059 1.44179 41.1284Z" fill="#F5EFDB"/>
<path d="M1.92292 46.7712C2.56389 47.4161 3.52537 47.5774 4.16634 47.5774C4.80731 47.5774 5.28804 47.5774 5.28804 47.5774C5.28804 47.5774 5.76878 47.4162 6.24951 47.0937C6.89048 46.7713 7.53144 46.2876 8.01217 45.6427C8.4929 44.9978 8.65314 44.1917 8.81339 43.708C8.81339 43.5468 8.81339 43.3855 8.81339 43.3855C8.81339 43.2243 8.81339 43.2244 8.81339 43.0631C8.81339 42.9019 8.81339 42.7407 8.81339 42.7407C8.81339 42.7407 8.33266 42.7407 7.69169 43.0631C7.3712 43.2244 7.05071 43.3856 6.73022 43.5468C6.40973 43.708 6.08926 44.0304 5.76877 44.3529C5.44829 44.6753 5.28804 44.9978 5.28804 45.4815C5.12779 45.8039 5.12778 46.1264 5.12778 46.4488C5.12778 46.7713 5.12778 47.0937 5.12778 47.2549C5.12778 47.4162 5.12778 47.5774 5.12778 47.5774C5.12778 47.5774 5.1278 47.4162 4.96756 47.2549C4.96756 47.0937 4.80732 46.7713 4.64707 46.4488C4.48683 46.1264 4.32658 45.8039 4.16634 45.4815C4.0061 45.159 3.68561 44.8366 3.36512 44.5141C3.04463 44.1917 2.72415 44.0305 2.24342 43.8692C1.92294 43.708 1.44219 43.5468 1.1217 43.5468C0.480725 43.3856 0 43.3855 0 43.3855C0 43.3855 0 43.5468 0 43.708C0 43.8692 0 44.0305 0 44.0305C0 44.1917 0.160253 44.3529 0.160253 44.5141C0.801227 45.3202 1.28194 46.1263 1.92292 46.7712Z" fill="#F5EFDB"/>
<path d="M5.60869 52.8977C6.24967 52.8977 6.73039 52.7365 6.73039 52.7365C6.73039 52.7365 7.21113 52.5753 7.69186 52.0916C8.17259 51.6079 8.81356 51.1243 9.13404 50.3181C9.29429 49.9957 9.45455 49.512 9.45455 49.1895C9.45455 48.8671 9.61478 48.5446 9.61478 48.2222C9.61478 48.061 9.61478 47.8998 9.61478 47.8998C9.61478 47.7385 9.61478 47.7385 9.61478 47.5773C9.61478 47.4161 9.61478 47.2549 9.61478 47.2549C9.61478 47.2549 9.13406 47.4161 8.65333 47.7385C8.33285 47.8998 8.01235 48.061 7.69186 48.3834C7.37138 48.7059 7.21113 49.0283 6.89065 49.3508C6.7304 49.6732 6.57016 50.1569 6.57016 50.4794C6.57016 50.8018 6.57016 51.2855 6.57016 51.6079C6.57016 52.2528 6.7304 52.7365 6.89065 52.7365C6.89065 52.7365 6.7304 52.2528 6.40991 51.6079C6.24967 51.2855 6.08943 50.963 5.76895 50.8018C5.44846 50.4793 5.28821 50.1569 4.80748 49.9957C4.48699 49.8344 4.00627 49.512 3.68578 49.512C3.36529 49.3508 2.88457 49.3508 2.56408 49.3508C1.92311 49.3508 1.44238 49.3508 1.44238 49.3508C1.44238 49.3508 1.44237 49.512 1.60261 49.6732C1.60261 49.8345 1.60262 49.8344 1.76286 49.9957C1.76286 50.1569 1.92309 50.3181 1.92309 50.4794C2.08334 50.8018 2.24359 51.1242 2.56408 51.4467C2.88457 51.7691 3.20504 52.0916 3.52553 52.2528C4.1665 52.7365 4.96772 52.8977 5.60869 52.8977Z" fill="#F5EFDB"/>
<path d="M5.28779 25.4894C5.44803 25.8119 5.76852 26.1343 6.08901 26.2955C6.56974 26.7792 7.05048 26.9404 7.05048 26.9404C7.05048 26.9404 7.5312 27.1017 8.17218 27.1017C8.49267 27.1017 8.81315 27.1017 9.29388 27.1017C9.61437 27.1017 10.0951 26.9404 10.4156 26.7792C10.7361 26.618 11.0566 26.4568 11.2168 26.2955C11.6975 25.9731 12.018 25.6506 12.3385 25.3282C12.4987 25.1669 12.4988 25.0057 12.659 25.0057C12.659 24.8445 12.8192 24.8445 12.8192 24.8445C12.8192 24.8445 12.3385 24.6833 11.6975 24.5221C11.377 24.5221 11.0566 24.3608 10.5758 24.3608C10.2553 24.3608 9.77461 24.3608 9.29388 24.5221C8.97339 24.6833 8.65289 24.8445 8.33241 25.0057C7.85168 25.3282 7.53119 25.8118 7.21071 26.1343C6.89022 26.4567 6.89023 26.7792 6.89023 26.7792C6.89023 26.7792 7.05048 26.4567 7.05048 25.9731C7.21072 25.4894 7.21071 25.0057 7.21071 24.3608C7.21071 24.0384 7.21072 23.7159 7.05048 23.2322C6.89024 22.7486 6.72999 22.4261 6.56974 22.1037C6.4095 21.7812 6.089 21.4588 5.92875 21.1363C5.44802 20.6526 5.12754 20.3302 5.12754 20.3302C5.12754 20.3302 5.12755 20.3302 4.96731 20.4914C4.96731 20.6527 4.80705 20.8139 4.80705 20.9751C4.64681 21.4588 4.48657 22.1037 4.48657 22.7486C4.48657 23.071 4.48658 23.5547 4.64683 23.8772C4.96731 24.6833 5.12755 25.167 5.28779 25.4894Z" fill="#F5EFDB"/>
<path d="M2.88432 29.6823C3.04457 30.166 3.36506 30.4884 3.68554 30.8109C4.00603 31.1333 4.32652 31.2946 4.48676 31.4558C5.12773 31.7782 5.44823 31.9395 5.44823 31.9395C5.44823 31.9395 5.92896 31.9395 6.56993 31.9395C6.89042 31.9395 7.2109 31.9395 7.69163 31.7782C8.01212 31.617 8.49284 31.617 8.81333 31.2945C9.13382 31.1333 9.45432 30.8109 9.7748 30.6497C10.0953 30.3272 10.2555 30.166 10.4158 29.8435C10.576 29.5211 10.7362 29.3599 10.7362 29.1986C10.8965 29.0374 10.8965 28.8762 10.8965 28.8762C10.8965 28.8762 10.4158 28.715 9.7748 28.715C9.13383 28.715 8.3326 28.715 7.53138 29.0374C7.21089 29.1986 6.89042 29.5211 6.56993 29.8435C6.24944 30.166 6.08919 30.4884 5.92894 30.6497C5.60846 31.1333 5.44823 31.617 5.44823 31.7782C5.44823 31.7782 5.60846 31.2946 5.60846 30.6497C5.60846 30.3272 5.60846 30.0048 5.60846 29.5211C5.60846 29.1987 5.44822 28.715 5.28798 28.3925C4.96749 27.5864 4.32653 26.9415 3.8458 26.4578C3.36507 25.9741 2.88432 25.8129 2.88432 25.8129C2.88432 25.8129 2.88432 25.9742 2.72407 26.1354C2.72407 26.2966 2.56384 26.6191 2.56384 26.9415C2.56384 27.264 2.56384 27.7476 2.56384 28.0701C2.56384 28.8762 2.56384 29.1986 2.88432 29.6823Z" fill="#F5EFDB"/>
<path d="M1.12169 34.0341C1.28193 34.5178 1.44218 34.8402 1.60243 35.3238C1.92291 35.6463 2.08316 35.9688 2.40365 36.2912C2.72413 36.6136 3.04463 36.7749 3.36512 36.7749C4.00609 37.0974 4.48682 37.0973 4.48682 37.0973C4.48682 37.0973 4.96755 37.0973 5.60852 36.9361C5.92901 36.9361 6.24951 36.7749 6.56999 36.6137C6.89048 36.4524 7.37121 36.2912 7.6917 35.9688C8.01218 35.6463 8.33267 35.4851 8.49292 35.1627C8.65316 34.8402 8.81341 34.5178 8.97365 34.3565C9.13389 33.8729 9.29413 33.3892 9.29413 33.3892C9.29413 33.3892 8.81341 33.3892 8.17243 33.3892C7.53146 33.3892 6.73022 33.5504 5.929 34.1953C5.60852 34.5178 5.28803 34.679 5.12779 35.0014C4.96754 35.3239 4.80732 35.6463 4.64707 35.9688C4.48683 36.6137 4.32657 37.0973 4.32657 37.0973C4.32657 37.0973 4.32657 36.6137 4.32657 35.9688C4.32657 35.6463 4.16634 35.3239 4.16634 34.8402C4.00609 34.5178 3.84585 34.0341 3.6856 33.7116C3.20487 32.9055 2.56389 32.4218 1.92291 32.0994C1.28193 31.7769 0.961462 31.6157 0.961462 31.6157C0.961462 31.6157 0.801208 32.0994 0.801208 32.9055C1.1217 33.2279 1.12169 33.7116 1.12169 34.0341Z" fill="#F5EFDB"/>
<path d="M16.0241 14.0434C16.0241 14.0434 16.3446 14.3659 16.9856 14.6883C17.6265 15.0108 18.2675 15.3332 19.229 15.4945C19.5495 15.4945 19.87 15.4945 20.1904 15.4945C20.8314 15.3332 21.3121 15.172 21.6326 15.0108C21.9531 14.8496 22.2736 14.6883 22.2736 14.6883C22.2736 14.6883 21.9531 14.3659 21.4724 13.8822C20.9917 13.3985 20.1904 13.0761 19.3892 12.9149C19.0687 12.9149 18.7482 12.9149 18.4278 12.9149C17.7868 13.0761 17.3061 13.2373 16.9856 13.5597C16.1844 13.8822 16.0241 14.0434 16.0241 14.0434C16.0241 14.0434 16.3446 13.721 16.5048 13.3986C16.8253 13.0761 17.1458 12.5924 17.3061 12.1087C17.4663 11.7863 17.6265 11.4638 17.6265 11.1414C17.7868 10.3353 17.6266 9.36792 17.4663 8.72302C17.3061 8.07813 16.9856 7.59448 16.9856 7.59448C16.9856 7.59448 16.6651 7.75569 16.3446 8.07813C16.0241 8.40058 15.5434 8.88425 15.2229 9.52914C15.0626 9.85159 14.9024 10.1741 14.9024 10.6577C14.7422 11.6251 14.9024 12.4312 15.2229 13.0761C15.7036 13.721 16.0241 14.0434 16.0241 14.0434Z" fill="#F5EFDB"/>
<path d="M12.3386 17.9113C12.3386 17.9113 12.8194 18.2337 13.3001 18.395C13.9411 18.7174 14.7423 18.8787 15.5435 18.8787C15.7037 18.8787 16.0242 18.8786 16.1845 18.7174C16.3447 18.7174 16.505 18.5562 16.6652 18.5562C16.9857 18.395 17.3062 18.2338 17.6267 18.0725C17.9472 17.9113 18.1074 17.7501 18.2677 17.7501C18.4279 17.5888 18.4279 17.5888 18.4279 17.5888C18.4279 17.5888 18.1074 17.2664 17.4664 16.9439C17.1459 16.7827 16.8255 16.6215 16.505 16.4603C16.3447 16.4603 16.1845 16.2991 15.864 16.2991C15.7038 16.2991 15.3833 16.2991 15.223 16.2991C14.7423 16.2991 14.4218 16.4603 14.1013 16.6215C13.7808 16.7828 13.4603 16.944 13.1398 17.1052C12.6591 17.4276 12.3386 17.7501 12.3386 17.9113C12.3386 17.9113 12.6591 17.4276 12.9796 16.9439C13.1399 16.6215 13.3001 16.299 13.4604 15.9766C13.6206 15.6541 13.6206 15.1705 13.6206 14.8481C13.6206 14.6868 13.6206 14.3644 13.6206 14.2032C13.6206 14.0419 13.6206 13.7195 13.4604 13.5582C13.3001 13.2358 13.3001 12.7521 13.1398 12.4297C12.8194 11.7848 12.4989 11.4623 12.4989 11.4623C12.4989 11.4623 12.3386 11.6236 12.1784 11.7848C12.0182 11.946 11.8579 12.2685 11.6977 12.4297C11.5374 12.7521 11.3772 13.0746 11.2169 13.5582C11.2169 13.7195 11.0567 14.0419 11.0567 14.2032C11.0567 14.3644 11.0567 14.6868 11.0567 14.8481C11.0567 15.8154 11.3772 16.6215 11.6977 17.1052C12.0182 17.5889 12.3386 17.9113 12.3386 17.9113Z" fill="#F5EFDB"/>
<path d="M8.49295 21.4599C8.97368 21.9436 9.29417 22.266 9.29417 22.266C9.29417 22.266 9.77489 22.4272 10.4159 22.5884C11.0568 22.7497 11.8581 22.9109 12.6593 22.7497C13.4605 22.5884 14.1015 22.1048 14.5822 21.7823C14.7425 21.6211 15.0629 21.4599 15.0629 21.2986C15.2232 21.1374 15.2232 21.1374 15.2232 21.1374C15.2232 21.1374 14.7425 20.815 14.2617 20.6538C13.6208 20.3313 12.8195 20.1701 12.0183 20.3313C11.5376 20.3313 11.2171 20.4925 10.8966 20.8149C10.5761 20.9762 10.2556 21.2987 10.0954 21.4599C9.93514 21.6211 9.61465 21.9435 9.61465 22.1048C9.45441 22.266 9.45442 22.4272 9.45442 22.4272C9.45442 22.4272 9.61465 22.266 9.61465 22.1048C9.77489 21.9435 9.77489 21.6211 9.93513 21.2986C10.0954 20.9762 10.0954 20.6537 10.2556 20.3313C10.2556 20.0088 10.4159 19.5252 10.2556 19.0415C10.0954 18.0742 9.77491 17.4292 9.45442 16.7843C9.13393 16.1394 8.81343 15.817 8.81343 15.817C8.81343 15.817 8.6532 15.9782 8.6532 16.1394C8.49296 16.3007 8.33271 16.6231 8.17247 16.9456C7.85198 17.5905 7.53149 18.5578 7.69173 19.3639C7.69173 20.1701 8.01222 20.9762 8.49295 21.4599Z" fill="#F5EFDB"/>
<path d="M30.1259 7.27147C30.4464 7.75514 31.0874 8.56126 31.7284 8.88371C32.0489 9.04493 32.3694 9.20618 32.6899 9.36741C33.0103 9.52863 33.1706 9.52859 33.4911 9.52859C33.8116 9.52859 33.9718 9.52859 34.132 9.52859C34.4525 9.52859 34.773 9.52859 34.773 9.52859C34.773 9.52859 34.6128 9.04495 34.4525 8.40006C34.132 7.75516 33.6513 7.11026 33.0103 6.62659C32.6898 6.46536 32.3693 6.30412 32.0489 6.30412C30.9272 5.98167 29.8054 6.30412 29.6452 6.30412C29.8054 6.30412 30.7669 5.9817 31.7284 5.17559C32.0489 5.01436 32.2091 4.69192 32.5296 4.36947C33.0103 3.72457 33.3308 2.75724 33.4911 2.11235C33.6513 1.46745 33.6513 0.983765 33.6513 0.983765C33.6513 0.983765 33.3308 0.983774 32.8501 1.145C32.6898 1.145 32.3693 1.30619 32.0489 1.46742C31.7284 1.62864 31.4079 1.78989 31.2476 1.95112C30.9272 2.11234 30.6067 2.43479 30.4464 2.75723C29.9657 3.56335 29.8055 4.36946 29.8055 5.01435C29.8055 5.65925 29.8055 6.14294 29.8055 6.14294C29.8055 6.14294 29.6452 6.7878 30.1259 7.27147Z" fill="#F5EFDB"/>
<path d="M24.6773 8.23901C24.6773 8.23901 24.9978 8.72269 25.3183 9.20637C25.799 9.69004 26.44 10.3349 27.2412 10.4961C27.5617 10.6574 28.0424 10.8186 28.3629 10.8186C28.6834 10.8186 29.0039 10.8186 29.3244 10.8186C29.9654 10.8186 30.2859 10.6574 30.2859 10.6574C30.2859 10.6574 30.1256 10.1737 29.8051 9.69002C29.4846 9.20635 28.8437 8.56145 28.0424 8.07778C27.2412 7.75533 26.44 7.75532 25.799 7.91654C25.1581 7.91654 24.6773 8.23901 24.6773 8.23901C24.6773 8.23901 25.158 8.0778 25.6388 7.59413C26.1195 7.27168 26.7605 6.62677 27.081 5.82065C27.5617 5.01453 27.5617 4.20842 27.722 3.56352C27.722 2.91863 27.5617 2.43494 27.5617 2.43494C27.5617 2.43494 27.081 2.59619 26.44 2.91864C26.1195 3.07986 25.799 3.40231 25.4785 3.72476C25.1581 4.04721 24.8376 4.36963 24.6773 4.8533C24.1966 5.65942 24.1966 6.62676 24.3568 7.27166C24.5171 7.75533 24.6773 8.23901 24.6773 8.23901Z" fill="#F5EFDB"/>
<path d="M20.0302 10.8182C20.0302 10.8182 20.3507 11.1407 20.8314 11.6243C21.3121 12.108 22.1133 12.5917 22.9146 12.7529C23.3953 12.9141 23.7158 12.9141 24.0363 12.9141C24.3568 12.9141 24.6773 12.7529 24.9977 12.7529C25.6387 12.5917 25.9592 12.4305 25.9592 12.4305C25.9592 12.4305 25.6387 11.9468 25.3182 11.4631C24.8375 10.9794 24.1965 10.4958 23.3953 10.1733C23.0748 10.0121 22.5941 10.0121 22.2736 10.0121C21.9531 10.0121 21.4724 10.1733 21.3121 10.1733C20.5109 10.4958 20.1904 10.8182 20.0302 10.8182C20.0302 10.8182 20.5109 10.4958 20.9916 10.0121C21.1519 9.85087 21.4724 9.52842 21.6326 9.20597C21.7929 8.88352 22.1133 8.56105 22.1133 8.07738C22.4338 7.27125 22.4338 6.3039 22.2736 5.659C22.1134 5.0141 21.9531 4.53046 21.9531 4.53046C21.9531 4.53046 21.4724 4.69167 20.8314 5.17535C20.5109 5.33657 20.1904 5.65902 20.0302 5.98147C19.7097 6.30392 19.5494 6.78757 19.3892 7.11002C19.0687 7.91614 19.229 8.88349 19.3892 9.52839C19.8699 10.3345 20.0302 10.8182 20.0302 10.8182Z" fill="#F5EFDB"/>
<path d="M45.1885 6.46517C45.3487 7.11005 45.509 7.91616 45.9897 8.72227C46.1499 9.04471 46.4704 9.20593 46.6307 9.52838C46.7909 9.6896 47.1114 9.85085 47.2717 10.0121C47.4319 10.1733 47.7524 10.3345 47.9126 10.3345C48.2331 10.4957 48.5536 10.657 48.5536 10.657C48.5536 10.657 48.7139 10.1733 48.7139 9.52838C48.7139 8.88349 48.5536 8.07739 48.0729 7.27128C47.9126 6.94883 47.5921 6.78761 47.4319 6.46517C47.2717 6.30394 46.9512 6.14274 46.7909 5.98152C46.6307 5.8203 46.3102 5.82028 46.15 5.65905C45.6692 5.49783 45.509 5.49782 45.3487 5.49782C45.3487 5.49782 45.6692 5.49782 46.15 5.49782C46.3102 5.49782 46.6307 5.49782 46.9512 5.49782C47.2717 5.49782 47.4319 5.49786 47.7524 5.33664C48.0729 5.17542 48.3934 5.1754 48.7139 5.01417C49.5151 4.53051 50.156 4.04684 50.4765 3.40195C50.797 2.91829 51.1175 2.43461 51.1175 2.43461C51.1175 2.43461 50.797 2.27338 50.3163 2.27338C49.9958 2.27338 49.8356 2.27338 49.5151 2.27338C49.1946 2.27338 48.8741 2.27339 48.5536 2.43461C48.2331 2.43461 47.9126 2.59585 47.4319 2.75707C46.6307 3.24074 46.15 3.88564 45.8295 4.53053C45.509 5.17542 45.3487 5.65905 45.3487 5.65905C45.3487 5.65905 45.0282 5.82028 45.1885 6.46517Z" fill="#F5EFDB"/>
<path d="M41.1826 8.0776C41.5031 8.40005 41.8236 8.56128 42.1441 8.88372C42.4646 9.04495 42.7851 9.2062 43.1056 9.36742C43.5863 9.52865 44.067 9.68984 44.067 9.68984C44.067 9.68984 44.067 9.2062 44.067 8.56131C43.9068 7.91641 43.7465 7.11026 43.1056 6.46537C42.7851 6.14292 42.4646 5.98169 42.1441 5.65925C41.8236 5.49802 41.5031 5.33682 41.1826 5.17559C40.5417 5.01437 40.0609 5.01436 40.0609 5.01436C40.0609 5.01436 40.5417 5.01435 41.1826 4.85313C41.5031 4.85313 41.8236 4.69193 42.1441 4.53071C42.4646 4.36948 42.9453 4.20822 43.2658 3.88577C43.9068 3.4021 44.3875 2.59602 44.708 2.11235C45.0285 1.46746 45.1887 0.983765 45.1887 0.983765C45.1887 0.983765 44.708 0.983765 43.9068 0.983765C43.1056 0.983765 42.3044 1.30621 41.5031 1.78988C40.7019 2.43478 40.3814 3.07969 40.2212 3.72459C40.0609 4.36948 39.9007 4.85313 39.9007 4.85313C39.9007 4.85313 39.9007 5.33682 40.0609 5.98171C40.2212 6.62661 40.5417 7.43271 41.1826 8.0776Z" fill="#F5EFDB"/>
<path d="M37.8173 5.98164C37.1763 5.49796 36.3751 5.17551 35.7341 5.17551C35.0932 5.17551 34.6124 5.17551 34.6124 5.17551C34.6124 5.17551 35.0932 5.17549 35.7341 4.85304C36.3751 4.69182 37.0161 4.3694 37.657 3.7245C38.298 3.0796 38.6185 2.27344 38.939 1.62855C39.0992 0.983645 39.2595 0.5 39.2595 0.5C39.2595 0.5 38.7787 0.499961 37.9775 0.661186C37.657 0.661186 37.1763 0.82244 36.8558 1.14489C36.5353 1.30611 36.0546 1.62856 35.7341 1.95101C35.0932 2.59591 34.7727 3.40202 34.7727 4.04692C34.6124 4.69182 34.6124 5.17551 34.6124 5.17551C34.6124 5.17551 34.7727 5.65916 34.9329 6.30406C35.2534 6.94896 35.5739 7.59388 36.2149 8.23878C36.5353 8.56123 36.8558 8.72244 37.1763 8.88367C37.4968 9.04489 37.8173 9.04491 38.1378 9.20614C38.7787 9.36736 39.0992 9.36737 39.0992 9.36737C39.0992 9.36737 39.0992 8.88368 38.939 8.23878C38.939 7.43265 38.4583 6.62654 37.8173 5.98164Z" fill="#F5EFDB"/>
<path d="M59.6105 11.1406C59.6105 11.1406 59.4503 11.6243 59.1298 12.2692C58.9695 12.9141 58.8093 13.7202 58.8093 14.5264C58.8093 14.8488 58.9695 15.1713 59.1298 15.4937C59.29 15.9774 59.6105 16.461 59.931 16.7835C60.0912 16.9447 60.0912 17.1059 60.2515 17.1059C60.4117 17.2672 60.4117 17.2672 60.4117 17.2672C60.4117 17.2672 60.7322 16.9447 61.0527 16.2998C61.3732 15.6549 61.5334 14.8488 61.5334 14.0427C61.5334 13.7203 61.3731 13.3978 61.2129 13.0754C60.5719 11.9468 59.6105 11.1406 59.6105 11.1406C59.7707 11.1406 60.572 11.7856 61.8539 12.108C62.1744 12.108 62.4949 12.2692 62.9756 12.2692C63.7768 12.2692 64.7382 11.9468 65.219 11.6243C65.8599 11.3019 66.1804 10.9795 66.1804 10.9795C66.1804 10.9795 66.1804 10.9795 66.0202 10.8182C65.8599 10.657 65.6997 10.657 65.5395 10.4958C65.0588 10.1733 64.578 9.85087 63.9371 9.68965C63.6166 9.52842 63.1358 9.52841 62.8153 9.52841C61.8539 9.52841 61.0527 10.0121 60.5719 10.3345C59.931 10.8182 59.6105 11.1406 59.6105 11.1406Z" fill="#F5EFDB"/>
<path d="M55.1238 8.40017C55.1238 8.40017 54.9635 8.88382 54.8033 9.52872C54.643 10.1736 54.643 10.9798 54.9635 11.7859C55.1237 12.2696 55.284 12.592 55.4442 12.9145C55.6045 13.0757 55.6045 13.2369 55.7647 13.3982C55.925 13.5594 55.925 13.7206 56.0852 13.7206C56.4057 14.2043 56.8864 14.3655 56.8864 14.3655C56.8864 14.3655 57.0467 13.8818 57.3672 13.2369C57.5274 12.592 57.6877 11.7859 57.5274 10.9798C57.3672 10.4961 57.2069 10.1736 57.0467 9.85119C56.8864 9.52874 56.5659 9.20629 56.4057 9.04506C55.6045 8.72261 55.1238 8.5614 55.1238 8.40017C55.1238 8.40017 55.6045 8.7226 56.2455 8.88383C56.566 8.88383 56.8864 9.04506 57.3672 9.04506C57.6877 9.04506 58.1684 9.04506 58.6491 9.04506C59.4503 8.88384 60.2516 8.40015 60.7323 8.0777C61.213 7.59403 61.5335 7.27158 61.5335 7.27158C61.5335 7.27158 61.0528 6.94915 60.4118 6.78792C60.2516 6.78792 60.0913 6.62669 59.9311 6.62669C59.7708 6.62669 59.4503 6.46545 59.2901 6.46545C58.8094 6.46545 58.4889 6.46545 58.0081 6.46545C57.0467 6.62668 56.4057 7.11037 55.925 7.59405C55.284 8.07772 55.1238 8.40017 55.1238 8.40017Z" fill="#F5EFDB"/>
<path d="M50.1564 6.46538C50.1564 6.46538 49.9962 6.94908 49.9962 7.59397C49.9962 8.23887 49.9962 9.04497 50.4769 9.85109C50.6371 10.1735 50.7974 10.496 51.1179 10.8184C51.2781 11.1409 51.5986 11.3021 51.7588 11.4633C52.2396 11.7858 52.5601 11.947 52.5601 11.947C52.5601 11.947 52.7203 11.4633 52.8805 10.8184C53.0408 10.1736 53.0408 9.36744 52.7203 8.56132C52.5601 8.23888 52.3998 7.91642 52.0793 7.59397C51.7588 7.27152 51.5986 7.11031 51.2781 6.94909C50.7974 6.62664 50.3167 6.46538 50.1564 6.46538C50.1564 6.46538 50.6371 6.62662 51.2781 6.62662C51.5986 6.62662 51.9191 6.62662 52.3998 6.62662C52.7203 6.62662 53.201 6.46538 53.5215 6.46538C54.3227 6.14294 54.9637 5.65929 55.4444 5.17561C55.9252 4.69194 56.0854 4.20826 56.0854 4.20826C56.0854 4.20826 55.6047 4.04702 54.9637 3.88579C54.6432 3.72457 54.1625 3.72461 53.842 3.72461C53.3613 3.72461 53.0408 3.72457 52.5601 3.88579C51.7588 4.20824 51.1179 4.85318 50.6371 5.33685C50.3167 5.98174 50.1564 6.46538 50.1564 6.46538Z" fill="#F5EFDB"/>
<path d="M71.1484 22.4266C70.5074 22.5879 70.0266 22.7491 70.0266 22.7491C70.0266 22.7491 69.7061 23.0716 69.2254 23.5552C69.0652 23.7165 68.7447 24.0389 68.5844 24.3614C68.4242 24.6838 68.1037 25.0063 68.1037 25.4899C67.9435 25.8124 67.9435 26.1348 67.9435 26.4573C67.9435 27.1022 67.9435 27.5859 68.1037 27.9083C68.1037 28.0695 68.264 28.2307 68.264 28.392C68.264 28.5532 68.264 28.5532 68.264 28.5532C68.264 28.5532 68.7447 28.392 69.2254 27.9083C69.5459 27.7471 69.7061 27.4246 70.0266 27.1022C70.1869 26.7797 70.5074 26.4573 70.6676 25.9736C70.8279 25.6512 70.8279 25.3287 70.8279 25.0062C70.8279 24.3613 70.6676 23.8777 70.5074 23.394C70.3471 22.9103 70.1869 22.7491 70.1869 22.5879C70.1869 22.5879 70.3471 22.9103 70.6676 23.2328C70.9881 23.5552 71.3086 24.0389 71.7893 24.3614C72.1098 24.5226 72.4303 24.845 72.7508 24.845C73.2315 25.0062 73.552 25.1675 74.0327 25.1675C74.5135 25.1675 74.834 25.1675 75.1545 25.1675C75.7954 25.1675 76.2762 25.0062 76.2762 25.0062C76.2762 25.0062 76.2762 25.0062 76.1159 24.845C76.1159 24.6838 75.9557 24.5226 75.7954 24.3614C75.4749 23.8777 75.1545 23.394 74.6737 22.9103C74.3532 22.7491 74.0327 22.4267 73.7123 22.2655C73.2315 22.1042 72.911 21.943 72.4303 21.943C71.9496 22.2654 71.4688 22.2654 71.1484 22.4266Z" fill="#F5EFDB"/>
<path d="M68.2641 17.9125C67.6231 18.0737 67.3026 18.3962 67.3026 18.3962C67.3026 18.3962 66.9821 18.7186 66.5014 19.2023C66.1809 19.686 65.7002 20.4921 65.5399 21.2982C65.5399 21.7819 65.5399 22.1043 65.5399 22.4268C65.5399 22.7492 65.7001 23.0717 65.7001 23.3941C65.8604 23.8778 66.0206 24.3615 66.0206 24.3615C66.0206 24.3615 66.3411 24.0391 66.8218 23.5554C67.3026 23.0717 67.7833 22.4268 67.9436 21.4595C68.1038 20.6533 67.9436 19.8472 67.6231 19.2023C67.4628 18.8798 67.3026 18.7186 67.3026 18.5574C67.1423 18.3962 67.1424 18.235 67.1424 18.235C67.3026 18.3962 68.264 19.686 70.0267 20.1696C70.8279 20.3309 71.7894 20.3309 72.4304 20.1696C73.0714 20.0084 73.5521 19.8472 73.5521 19.8472C73.5521 19.8472 73.2316 19.3635 72.7509 18.8799C72.4304 18.5574 72.2702 18.3962 71.7894 18.0737C71.4689 17.9125 70.9882 17.59 70.5075 17.59C69.7062 17.4288 68.7448 17.5901 68.2641 17.9125Z" fill="#F5EFDB"/>
<path d="M64.5781 13.882C63.9371 14.2044 63.6166 14.5269 63.6166 14.5269C63.6166 14.5269 63.2961 14.8493 62.9756 15.4942C62.8154 15.8167 62.6551 16.1391 62.4949 16.4616C62.4949 16.6228 62.3347 16.784 62.3347 17.1064C62.3347 17.2677 62.3347 17.5901 62.3347 17.7513C62.3347 18.235 62.3346 18.5575 62.4949 18.8799C62.6551 19.2024 62.6551 19.5248 62.8154 19.8473C62.9756 20.1697 63.1359 20.3309 63.1359 20.4921C63.2961 20.6534 63.2961 20.6534 63.2961 20.6534C63.2961 20.6534 63.6166 20.3309 64.0973 19.8473C64.4178 19.3636 64.8985 18.5574 64.8985 17.7513C64.8985 17.5901 64.8985 17.2677 64.8985 17.1064C64.8985 16.9452 64.7383 16.784 64.7383 16.6228C64.5781 16.3003 64.4178 15.9779 64.2576 15.6554C63.9371 15.1718 63.6166 14.8493 63.4564 14.6881C63.4564 14.6881 63.9371 15.0105 64.4178 15.333C64.7383 15.4942 65.0588 15.6554 65.3793 15.8167C65.5395 15.8167 65.6997 15.9779 66.0202 15.9779C66.1805 15.9779 66.3407 16.1391 66.6612 16.1391C67.4624 16.3003 68.4239 15.9779 69.0649 15.8167C69.7058 15.6554 70.0263 15.333 70.0263 15.333C70.0263 15.333 69.8661 15.1718 69.8661 15.0106C69.7058 14.8493 69.5456 14.6881 69.2251 14.3656C68.9046 14.2044 68.5841 13.882 68.2637 13.7207C67.9432 13.5595 67.4624 13.3983 66.9817 13.3983C66.8215 13.3983 66.501 13.3983 66.3407 13.3983C66.1805 13.3983 65.86 13.3983 65.6998 13.5595C65.219 13.5595 64.8985 13.7207 64.5781 13.882Z" fill="#F5EFDB"/>
<path d="M77.077 33.3903C76.436 32.7455 75.4745 32.5842 74.8336 32.5842C74.1926 32.5842 73.7119 32.5842 73.7119 32.5842C73.7119 32.5842 73.2312 32.7454 72.7504 33.0679C72.1094 33.3903 71.4685 33.874 70.9877 34.5189C70.507 35.1638 70.3468 35.9699 70.1865 36.4536C70.1865 36.6148 70.1865 36.776 70.1865 36.776C70.1865 36.9373 70.1865 36.9372 70.1865 37.0985C70.1865 37.2597 70.1865 37.4209 70.1865 37.4209C70.1865 37.4209 70.6672 37.4209 71.3082 37.0985C71.6287 36.9372 71.9492 36.776 72.2697 36.6148C72.5902 36.4536 72.9106 36.1311 73.2311 35.8087C73.5516 35.4862 73.7119 35.1638 73.7119 34.6801C73.8721 34.3577 73.8721 34.0352 73.8721 33.7128C73.8721 33.3903 73.8721 33.0679 73.8721 32.9066C73.8721 32.7454 73.8721 32.5842 73.8721 32.5842C73.8721 32.5842 73.8721 32.7454 74.0323 32.9066C74.0323 33.0679 74.1926 33.3903 74.3529 33.7128C74.5131 34.0352 74.6733 34.3577 74.8336 34.6801C74.9938 35.0026 75.3143 35.325 75.6348 35.6475C75.9553 35.9699 76.2758 36.1311 76.7565 36.2923C77.077 36.4536 77.5577 36.6148 77.8782 36.6148C78.5192 36.776 78.9999 36.776 78.9999 36.776C78.9999 36.776 78.9999 36.6148 78.9999 36.4536C78.9999 36.2924 78.9999 36.1311 78.9999 36.1311C78.9999 35.9699 78.8396 35.8087 78.8396 35.6475C78.1987 34.8413 77.8782 34.0352 77.077 33.3903Z" fill="#F5EFDB"/>
<path d="M73.3915 27.2621C72.7505 27.2621 72.2698 27.4233 72.2698 27.4233C72.2698 27.4233 71.789 27.5845 71.3083 28.0682C70.8276 28.3906 70.1866 29.0355 69.8661 29.8417C69.7059 30.1641 69.5456 30.6478 69.5456 30.9702C69.5456 31.2927 69.3854 31.6151 69.3854 31.9376C69.3854 32.0988 69.3854 32.26 69.3854 32.26C69.3854 32.4212 69.3854 32.4213 69.3854 32.5825C69.3854 32.7437 69.3854 32.9049 69.3854 32.9049C69.3854 32.9049 69.8661 32.7437 70.3468 32.4212C70.6673 32.26 70.9878 32.0988 71.3083 31.7764C71.6288 31.4539 71.789 31.1315 72.1095 30.809C72.2698 30.4866 72.43 30.0029 72.43 29.6804C72.43 29.358 72.43 28.8743 72.43 28.5519C72.43 27.907 72.2698 27.4233 72.1095 27.4233C72.1095 27.4233 72.2698 27.907 72.5903 28.5519C72.7505 28.8743 72.9107 29.1968 73.2312 29.358C73.5517 29.6804 73.712 30.0029 74.1927 30.1641C74.5132 30.3253 74.9939 30.6478 75.3144 30.6478C75.6349 30.809 76.1156 30.809 76.4361 30.809C77.0771 30.809 77.5578 30.809 77.5578 30.809C77.5578 30.809 77.5578 30.6478 77.3976 30.4865C77.3976 30.3253 77.3976 30.3253 77.2373 30.1641C77.2373 30.0029 77.0771 29.8416 77.0771 29.6804C76.9168 29.358 76.7566 29.0356 76.4361 28.7131C76.1156 28.3907 75.7951 28.0682 75.4746 27.907C74.9939 27.4233 74.1927 27.2621 73.3915 27.2621Z" fill="#F5EFDB"/>
<path d="M40.3194 39.1944C42.3978 39.3138 44.0309 40.0448 45.2185 41.3873C46.4062 42.7299 47 44.3112 47 46.1312C47 47.7721 46.6289 49.2341 45.8866 50.517C45.174 51.7701 44.1645 52.7546 42.858 53.4707C41.5516 54.1569 40.0522 54.5 38.3598 54.5C35.5391 54.5 33.1044 53.3812 31.0557 51.1435L31.0111 51.054C31.0111 50.9347 31.0705 50.8452 31.1893 50.7855C31.3377 50.696 31.4417 50.696 31.501 50.7855C32.1839 51.4717 33.0005 51.9938 33.9506 52.3519C34.9304 52.7099 35.8805 52.8889 36.801 52.8889C38.82 52.8889 40.2897 52.3071 41.2102 51.1435C42.1603 49.9501 42.6354 48.3987 42.6354 46.4892C42.6354 41.9841 40.2007 39.7315 35.3312 39.7315C35.2125 39.7315 35.1383 39.642 35.1086 39.463C35.1086 39.2541 35.1828 39.1497 35.3312 39.1497C37.7066 39.1497 39.3693 38.6276 40.3194 37.5833C41.2992 36.5391 41.7891 35.0622 41.7891 33.1528C41.7891 31.2731 41.3883 29.8858 40.5866 28.9907C39.785 28.0957 38.6715 27.6481 37.2463 27.6481C36.0884 27.6481 34.9749 27.9465 33.9061 28.5432C32.8372 29.1101 32.0503 29.9604 31.5456 31.0941C31.5456 31.124 31.501 31.1389 31.412 31.1389C31.3229 31.1389 31.219 31.1091 31.1002 31.0494C31.0111 30.9897 30.9814 30.945 31.0111 30.9151C31.6643 29.2443 32.7035 27.9316 34.1287 26.9769C35.5539 25.9923 37.187 25.5 39.0278 25.5C41.0765 25.5 42.7393 26.0818 44.016 27.2454C45.3224 28.409 45.9756 29.9007 45.9756 31.7207C45.9756 33.3318 45.456 34.8236 44.4168 36.196C43.4073 37.5684 42.0415 38.5679 40.3194 39.1944Z" fill="#AAAAAA"/>
</svg>
